<svg viewBox="0 0 144 145" version="1.1" xmlns="http://www.w3.org/2000/svg" xmlns:xlink="http://www.w3.org/1999/xlink">
    <title>Special Education Software, Curriculum and Learning Tools | n2y</title>
    <defs>
        <radialGradient cx="45.4550343%" cy="44.3367284%" fx="45.4550343%" fy="44.3367284%" r="65.5371084%" gradientTransform="translate(0.454550,0.443367),scale(1.000000,0.927521),translate(-0.454550,-0.443367)" id="radialGradient-1">
            <stop stop-color="#1584BC" offset="12%"></stop>
            <stop stop-color="#1864B3" offset="99%"></stop>
        </radialGradient>
        <radialGradient cx="50%" cy="50%" fx="50%" fy="50%" r="50.0147803%" gradientTransform="translate(0.500000,0.500000),rotate(88.607032),scale(1.000000,0.995552),translate(-0.500000,-0.500000)" id="radialGradient-2">
            <stop stop-color="#FFFFFF" stop-opacity="0" offset="0%"></stop>
            <stop stop-color="#FFFFFF" stop-opacity="0" offset="83.2573158%"></stop>
            <stop stop-color="#FFFFFF" stop-opacity="0.5" offset="100%"></stop>
        </radialGradient>
        <linearGradient x1="50%" y1="3.821175%" x2="50%" y2="92.9519551%" id="linearGradient-3">
            <stop stop-color="#FFFFFF" offset="0%"></stop>
            <stop stop-color="#FFFFFF" stop-opacity="0" offset="100%"></stop>
        </linearGradient>
        <filter x="-9.0%" y="-5.3%" width="118.0%" height="110.6%" filterUnits="objectBoundingBox" id="filter-4">
            <feGaussianBlur stdDeviation="1" in="SourceGraphic"></feGaussianBlur>
        </filter>
        <filter x="-7.7%" y="-5.0%" width="115.3%" height="110.0%" filterUnits="objectBoundingBox" id="filter-5">
            <feGaussianBlur stdDeviation="1" in="SourceGraphic"></feGaussianBlur>
        </filter>
        <filter x="-8.5%" y="-6.9%" width="117.1%" height="113.8%" filterUnits="objectBoundingBox" id="filter-6">
            <feGaussianBlur stdDeviation="1" in="SourceGraphic"></feGaussianBlur>
        </filter>
    </defs>
    <g id="Page-1" stroke="none" stroke-width="1" fill="none" fill-rule="evenodd">
        <g id="n2y-logo-rgb" fill-rule="nonzero">
            <circle id="Globe_base" fill="#88CDF1" cx="72" cy="72" r="72"></circle>
            <g id="BKG" opacity="0.36" transform="translate(26.000000, 2.000000)" fill="#488DCA">
                <path d="M14.3,66.2 L14.2,66.2 C13.7052523,66.3723463 13.2347256,66.6076096 12.8,66.9 C12.7199988,66.9765403 12.6099251,67.0132315 12.5,67 L12.4,67 C12.5,67.8 13.3,67.9 14.1,67.9 L15.3,67.9 C15.5379858,67.8762845 15.778174,67.9105971 16,68 L16.1,68 C16.1929629,67.8450946 16.2604866,67.6762852 16.3,67.5 L16.3,67.4 C16.3071418,67.1340297 16.1975245,66.8782562 16,66.7 C15.8,66.6 15.5,66.6 15.3,66.5 C15.1,66.4 15.1,66.3 15,66.3 C14.9,66.3 14.9,66.3 14.8,66.2 L14.3,66.2" id="SVGID"></path>
                <path d="M103,32.7 C102.828988,32.2195319 102.760849,31.7084898 102.8,31.2 C103.083167,31.5016586 103.258915,31.8883039 103.3,32.3 C103.3,32.5 103.2,32.6 103,32.7 M98.4,29.3 C98.3958379,29.1599993 98.4304449,29.0215714 98.5,28.9 C98.7634814,28.9718078 99.0043673,29.1094569 99.2,29.3 C99.5455021,29.679578 99.8168476,30.1205145 100,30.6 C100,30.7 100,30.7 99.9,30.7 C99.8,30.7 99.6,30.4 99.5,30.3 C99.4,30.2 99.2,30.1 99,30 C98.6632653,29.9316545 98.4160408,29.6432259 98.4,29.3 M97.4,24.6 C97.2,24.6 97,24.7 97,24.9 L97,25 C97,25.4 97.5,25.7 97.8,25.9 C98.395164,26.3574621 99.0311816,26.7591574 99.7,27.1 C100.2,27.5 100.8,27.7 101.3,28.1 C101.6,28.4 102.4,29 102.4,29.5 L102.4,29.6 C102.1,29.5 101.8,29.5 101.5,29.4 C101.2,29.3 100.9,28.9 100.5,28.7 C100.10381,28.5231199 99.7595344,28.2476995 99.5,27.9 C99.2674113,27.5909568 98.9567868,27.34936 98.6,27.2 C98.1,26.9 97.5,26 96.9,26 C96.5,26 96.4,26.2 96.4,26.5 L96.4,27.2 C96.3,27.5 95.4,27.8 95.4,28.2 L95.4,28.3 C95.4543054,28.3539389 95.4894321,28.4241924 95.5,28.5 C95.6,28.6 95.8,28.7 96,28.9 C96.1109244,29.0824217 96.1792865,29.287508 96.2,29.5 C96.3,29.8 96.3,30 96.6,30.2 C96.9,30.4 97,30.4 97,30.7 L97,30.9 C96.9698419,31.2135997 97.0398616,31.5286884 97.2,31.8 C97.2,31.9 97.3,31.9 97.3,32 C97.3,32.1 97.3,32.3 97.4,32.4 C97.5,32.5 97.7,32.7 97.9,32.9 C98.0920167,33.1330508 98.2287694,33.4065562 98.3,33.7 C98.6,33.8 98.8,34.1 99.1,34.1 L99.3,34.1 C99.7,34 99.7,33.5 100,33.2 C100.245987,32.9685053 100.563332,32.8274629 100.9,32.8 L101.1,32.8 C101.4,32.8 101.5,33 101.8,33 L102.4,33 C102.982417,33.030358 103.541231,33.2399135 104,33.6 C104.1,33.7 104.2,33.9 104.4,34.1 C105.061489,34.8809545 105.600935,35.7575538 106,36.7 L106.1,36.7 C106.3,37.1 107,37.8 107.5,37.8 L107.6,37.8 C107.9,37.7 108,37.2 108,36.8 C108,36.4 107.9,36.1 107.9,36 C107.9,35.9 107.4,35.7 107.3,35.5 C107.041725,35.168262 106.839083,34.7967521 106.7,34.4 L106.7,34.1 C106.7,34 106.7,33.9 106.8,33.9 C106.9,33.9 107,34 107.2,34.2 C107.4,34.4 107.5,34.4 107.6,34.4 C107.9,34.4 108.1,33.7 108.2,33.5 C109.5,35.8 110.7,38.1 111.8,40.5 C110.514057,37.6412447 109.044314,34.8687755 107.4,32.2 C107.1,32 106.4,31.6 106.1,31.4 C105.661167,31.1404497 105.190593,30.9387752 104.7,30.8 C104.015108,30.3653745 103.434625,29.7848917 103,29.1 C102.742269,28.892411 102.507589,28.6577308 102.3,28.4 C102.1,28.1 102,27.7 101.7,27.5 C101.280775,27.047761 100.811035,26.6451269 100.3,26.3 C99.924987,26.1523417 99.5578333,25.9854537 99.2,25.8 C98.9422692,25.592411 98.707589,25.3577308 98.5,25.1 C98.1866151,24.8348348 97.8058433,24.6617568 97.4,24.6 M81.7,19.2 C81.7,18.9 81.8,18.7 82.2,18.7 C82.3400007,18.6958379 82.4784286,18.7304449 82.6,18.8 C83.1,18.9 83.6,19.7 83.9,20 C84.2,20.3 84.4,20.6 84.3,20.9 C84.2556727,21.253267 84.0765255,21.575732 83.8,21.8 C83.6,21.9 83.5,22 83.4,22 C83.3,22 83.2,21.9 83.2,21.5 C83.2,21.1 83.2,20.7 82.8,20.4 C82.4,20.1 81.9,20 81.8,19.5 C81.7306418,19.4158475 81.695005,19.308937 81.7,19.2 M79.9,15.7 C79.9,15.5 80,15.3 80.2,15.3 L80.4,15.3 C81.0621009,15.4551774 81.6785976,15.7634258 82.2,16.2 C82.5,16.4 82.7,16.7 83,16.9 C83.2542993,17.1868019 83.5594261,17.4241227 83.9,17.6 C84.3,17.8 84.5,18.1 85,18.2 C85.4360738,18.3178062 85.8441108,18.5218247 86.2,18.8 C86.9319072,19.1154973 87.5818506,19.5944029 88.1,20.2 C88.2816809,20.3891647 88.3883159,20.6379796 88.4,20.9 C88.4187764,21.2454406 88.2187363,21.5655048 87.9,21.7 C87.6540131,21.9314947 87.3366677,22.0725371 87,22.1 L86.9,22.1 C86.7,22 86.6,21.7 86.4,21.6 C85.8,21 85.3,21 85,20.1 C84.9,19.6 84.5,19.3 84.2,18.8 C83.9026002,18.2579838 83.3969904,17.860719 82.8,17.7 C82.3,17.5 81.9,17.6 81.4,17.2 C81.0226444,16.9298484 80.6209029,16.6954991 80.2,16.5 C80.0240484,16.268337 79.9197601,15.9902348 79.9,15.7 M66.8,11.7 C66.8,11.6 66.9,11.5 67.1,11.4 C67.3,11.3 67.7,11.3 67.9,11.1 C68.1459869,10.8685053 68.4633323,10.7274629 68.8,10.7 C69.3621259,10.6801735 69.9066167,10.8979698 70.3,11.3 C70.4,11.5 70.5,11.6 70.5,11.7 C70.4714698,11.8743871 70.3594232,12.0237826 70.2,12.1 C69.9,12.2 69.5,12.7 69.2,12.8 L69.1,12.8 C68.8,12.8 68.5,12.4 68.2,12.3 C68.1,12.1 66.8,12.1 66.8,11.7 M45.7,3.8 C45.949448,3.81635568 46.1968452,3.74567076 46.4,3.6 C46.983844,3.42936511 47.5929396,3.36168782 48.2,3.4 C49.9,3.3 52,2.4 53.9,2.4 C55.0526547,2.28626797 56.1721197,2.82669933 56.8,3.8 C57.4,4.6 57.9,4.6 58.8,4.9 C59.3707052,5.04894351 59.8011515,5.51852123 59.9,6.1 C60.2,7 60.9,6.7 61.6,7.1 C62.1,7.4 62.8,8.1 62.8,8.7 L62.8,8.8 C62.7459151,9.10619153 62.5061915,9.34591513 62.2,9.4 L61.6,9.7 C61.5,9.7 61.1,9.7 61.1,9.8 C60.9,9.9 60.9,10.4 60.7,10.6 C60.5499547,10.9294048 60.3065722,11.2075562 60,11.4 C59.7,11.6 59.1,11.7 58.9,12.1 C58.7,12.5 58.8,12.8 58.6,13.2 C58.3208261,13.5812318 58.1482428,14.0299485 58.1,14.5 C58.1306251,14.7744045 58.1978906,15.0434665 58.3,15.3 C58.4343938,15.6161355 58.5024652,15.9564927 58.5,16.3 C58.5284476,16.5696136 58.4148565,16.8346596 58.2,17 L58,17 C57.7,17 57.6,16.7 57.4,16.5 C57,16.1 56.6,16.2 56.1,16 C55.8,15.9 55.6,15.6 55.2,15.6 C54.4,15.5 53.4,15.6 53.3,14.6 C53.3299277,14.3180804 53.2590748,14.034669 53.1,13.8 C52.9585655,13.5866886 52.8569259,13.3495294 52.8,13.1 L52.8,12.9 C52.3,12.5 52.1,12.4 52,11.8 L52,11 C52.0149638,10.8590402 51.9795374,10.7173345 51.9,10.6 C51.7,9.9 51.4,9.9 50.9,9.9 L50.5,9.9 C50.5,9.8 50.4,9.7 50.4,9.6 L50.4,9.1 C50.4,8.9 50.4,8.8 50.3,8.7 C50.1897428,8.59472503 50.0503743,8.52504078 49.9,8.5 L49.5,8.5 C49.3,8.5 49.2,8.4 49.1,8.1 C49,7.8 49,7.5 48.5,7.2 C48.2422692,6.99241099 48.007589,6.75773076 47.8,6.5 C47.5034349,5.99402631 46.9834309,5.65973798 46.4,5.6 C46.2277711,5.59333289 46.0564162,5.62760387 45.9,5.7 C45.551952,5.85877962 45.180468,5.96009344 44.8,6 C44.6900749,6.01323153 44.5800012,5.97654029 44.5,5.9 C44.312611,5.80441778 44.1961542,5.61032307 44.2,5.4 C44.2569259,5.15047064 44.3585655,4.91331139 44.5,4.7 C44.7,4.5 45.1,4.3 45.1,4 C45.1,3.9 45.1,3.9 45,3.8 L44.9,3.7 L44.8,3.7 C44.555723,3.71964486 44.3177834,3.78762761 44.1,3.9 C43.6029216,4.31619958 43.0236469,4.62287441 42.4,4.8 C41.8529269,4.80256519 41.3108427,4.904206 40.8,5.1 C40.5852987,5.44244622 40.3149126,5.74663052 40,6 C39.8784286,6.06955507 39.7400007,6.10416205 39.6,6.1 C39.1,6.1 39.2,5.6 38.8,5.4 L38.6,5.4 C38.387508,5.42071349 38.1824217,5.48907558 38,5.6 C37.6810141,5.93220034 37.2571518,6.14413147 36.8,6.2 L36.5,6.2 C36.5,6 36.4,5.9 36.4,5.7 C36.4,5.1 36.8,4.8 37.4,4.3 C37.8,4 38.1,3.6 38.5,3.6 C39.0388262,3.5890029 39.5750461,3.52197541 40.1,3.4 C40.3875161,3.28609447 40.6913019,3.21858654 41,3.2 L43.6,3.2 C44.0941663,3.27631978 44.5692887,3.44600635 45,3.7 C45.1,3.7 45.1,3.7 45.2,3.8 L45.7,3.8 M65.5,0.8 C65.7875161,0.913905529 66.0913019,0.981413465 66.4,1 C66.1,1.1 62.8,1.3 61.9,1.3 L61.7,1.3 C61.3,1.3 60.7,1.2 60.2,1.2 L59.7,1.2 C59.4547872,1.31137631 59.2204476,1.44528462 59,1.6 C58.8464583,1.6808367 58.6728218,1.71556399 58.5,1.7 C58.2294501,1.71623058 57.9582301,1.68232808 57.7,1.6 C57.4,1.6 57.2,1.5 56.9,1.5 L56.8,1.5 C56.2,1.5 55.6,1.7 55,1.7 C53.7590025,1.6464153 52.5161544,1.74718677 51.3,2 C51.2,2 51,2.2 50.7,2.2 L49.4,2.2 C48.9,2.2 48.4,2.3 47.9,2.3 C47.2,2.4 46.5,2.7 45.7,2.8 L45.5,2.8 C44.796158,2.78296446 44.0944044,2.71613079 43.4,2.6 L41.3,2.6 C39.8269535,2.550453 38.352689,2.65097103 36.9,2.9 C36.1762397,3.08147003 35.441317,3.21509234 34.7,3.3 C34.2663013,3.30603819 33.8433361,3.16504978 33.5,2.9 C33.2735854,2.71473626 32.9924036,2.60929308 32.7,2.6 C32.5271782,2.58443601 32.3535417,2.6191633 32.2,2.7 C31.9795524,2.85471538 31.7452128,2.98862369 31.5,3.1 C31.1,3.2 30.7,3.1 30.3,3.4 C29.9094014,3.66949773 29.5415074,3.97050188 29.2,4.3 C29.0920158,4.35383466 28.9912259,4.4210279 28.9,4.5 C29.2,4.6 29.3,4.8 29.6,4.9 C30.1,5 30.7,5 31,5.5 C31.0765403,5.58000117 31.1132315,5.69007489 31.1,5.8 C31.1,6.3 30.5,6.6 30.1,6.8 C29.8764024,6.93611747 29.6742069,7.10461372 29.5,7.3 C29.3,7.5 29,7.6 28.9,7.8 L28.9,7.9 L28.9,8 C28.9,8.1 28.9,8.2 28.8,8.2 C28.5250448,8.71413941 28.2909885,9.24912518 28.1,9.8 C28.3781817,9.79335931 28.6514205,9.7250496 28.9,9.6 C29.2868369,9.45324157 29.6896105,9.35254817 30.1,9.3 L30.5,9.3 C30.7,9.4 30.7,9.5 30.8,9.5 C30.8767857,9.49270841 30.9480953,9.45705359 31,9.4 C31.3,9.2 31.2,8.7 31.2,8.4 C31.3,7.8 31.9,7.1 32.3,7.1 C32.5,7.1 32.7,7.3 32.7,7.8 C32.7351493,8.61329906 32.8694767,9.41926327 33.1,10.2 C33.1,10.3 33.2,10.5 33.2,10.6 L33.2,11 C33.2116971,11.4748212 32.9868752,11.9244649 32.6,12.2 C32.3774807,12.2999331 32.1417264,12.3672915 31.9,12.4 C32.0953863,12.5742069 32.2638825,12.7764024 32.4,13 C32.8688945,13.0165235 33.3382143,12.9830007 33.8,12.9 C34,13 34.1,13 34.1,13.1 C34.1,13.2 33.8,13.5 33.5,13.5 L33.2,13.5 C33,13.5 32.9,13.5 32.8,13.4 C32.9418667,13.7056838 33.1462662,13.9782165 33.4,14.2 C33.8,14.5 34.2,14.3 34.7,14.5 C35.0708487,14.6745378 35.40907,14.9112927 35.7,15.2 C35.7,15.3 35.8,15.3 35.8,15.4 C36.1544186,15.0747833 36.6189977,14.896099 37.1,14.9 C37.6721736,14.8974161 38.2311079,15.0720831 38.7,15.4 C38.8504881,15.3251903 38.986046,15.2235219 39.1,15.1 C39.3,14.9 39.4,14.7 39.7,14.6 C39.7552285,14.6 39.8,14.5552285 39.8,14.5 C39.9215714,14.4304449 40.0599993,14.3958379 40.2,14.4 C40.4924036,14.4092931 40.7735854,14.5147363 41,14.7 L41.1,14.7 C41.2099251,14.6867685 41.3199988,14.7234597 41.4,14.8 L41.9,14.8 C41.8906993,14.6936333 41.8063667,14.6093007 41.7,14.6 C41.2,14 40,13.8 39.8,13.1 C39.8,13 39.7,12.9 39.7,12.8 C39.7,12.4 40,12.2 40.3,11.9 C40.5814951,11.6376374 40.759007,11.2826136 40.8,10.9 C40.8097741,10.8178255 40.7813244,10.735707 40.7228087,10.6771913 C40.664293,10.6186756 40.5821745,10.5902259 40.5,10.6 C40.2,10.6 39.9,11 39.6,11.1 C39.3874717,11.2251106 39.1465448,11.2939469 38.9,11.3 C38.7900749,11.3132315 38.6800012,11.2765403 38.6,11.2 L38.6,11.1 C38.6,10.5 39.3,10.1 39.3,9.6 C38.5,9.5 38.9,9.1 38.6,8.6 C38.5,8.4 38.4,8.3 38.3,8.3 C38.1,8.3 38,8.6 37.8,8.7 C37.4594261,8.87587732 37.1542993,9.11319814 36.9,9.4 L36.9,9.6 C36.9,9.7 36.9,9.8 36.8,9.8 C36.6474506,9.92183994 36.4792938,10.022734 36.3,10.1 C35.9118932,10.3663456 35.4665583,10.5376283 35,10.6 C34.8,10.6 34.7,10.6 34.6,10.5 C34.5,10.4 34.4,10.3 34.4,10.2 L34.4,10.1 C34.4376734,9.84461851 34.5410503,9.60340592 34.7,9.4 C35.2049657,8.79587545 35.8147197,8.28774712 36.5,7.9 C36.268988,7.94794183 36.0351953,7.98134079 35.8,8 C35.3,8 34.8,7.9 34.7,7.6 C34.9411252,7.36129067 35.261235,7.21901964 35.6,7.2 C35.8,7.2 36.1,7.3 36.5,7.3 L36.7,7.3 C37.1756939,7.24811438 37.6448139,7.14758867 38.1,7 C38.6,7 39.2,6.8 39.6,6.8 L39.7,6.8 C40.3,6.9 40.3,7.2 40.4,7.6 C40.6,8.2 41,8.2 41.4,8.5 C41.6,8.6 41.7,8.9 41.9,9.1 C42.1,9.3 42.1,9.2 42.3,9.3 C42.5699191,9.43890947 42.7561405,9.69961938 42.8,10 C42.9199688,10.4038127 43.2130375,10.733515 43.6,10.9 C44.1,11.2 45.4,11.5 45.3,12.2 C45.3132315,12.3099251 45.2765403,12.4199988 45.2,12.5 L44.5,12.5 C44.1634399,12.5216407 43.8256103,12.4878577 43.5,12.4 C43.3,12.4 43.2,12.3 43,12.3 C42.8895015,12.282671 42.7773757,12.3191972 42.6982864,12.3982864 C42.6191972,12.4773757 42.582671,12.5895015 42.6,12.7 C42.6207135,12.912492 42.6890756,13.1175783 42.8,13.3 C43.0175945,13.5931184 43.1554178,13.9376767 43.2,14.3 C43.2132315,14.4099251 43.1765403,14.5199988 43.1,14.6 C43.7,14.7 44.7,14.9 44.9,15.7 L44.9,16 C44.9132315,16.1099251 44.8765403,16.2199988 44.8,16.3 C44.7,16.5 44.6,16.4 44.5,16.6 C44.0564428,17.0007691 43.6844482,17.4742167 43.4,18 C42.9471956,18.6373965 42.4088095,19.2094318 41.8,19.7 C41.4684468,20.075333 41.1674847,20.4766157 40.9,20.9 C40.9,21 40.8,21 40.8,21.1 L40.8,21.2 C41.4680515,20.6652604 42.0425506,20.0231731 42.5,19.3 C42.8,18.9 42.8,18.6 43.4,18.6 L43.5,18.6 C43.8566416,18.5919516 44.2066837,18.6969642 44.5,18.9 C45.0238953,19.3164037 45.350137,19.932638 45.4,20.6 C45.4810136,21.3944232 45.8343214,22.1363697 46.4,22.7 C46.6759094,22.9339698 46.9779089,23.1353028 47.3,23.3 L47.9,23.6 C48.3394739,23.6175852 48.7755629,23.6846758 49.2,23.8 C49.5848206,24.2389709 49.7663993,24.8200229 49.7,25.4 L49.7,26.9 C49.7908686,27.2171281 49.9254973,27.5200426 50.1,27.8 C50.6,28.5 51.7,28.4 52.1,29.3 C52.1,29.4 52.2,29.5 52.2,29.6 C52.2,30.2 51.2,30.6 50.5,30.6 L50.1,30.6 C49.4228982,30.345395 48.9548323,29.7213071 48.9,29 C48.884436,28.8271782 48.9191633,28.6535417 49,28.5 C49.2,28.1 49.6,27.9 49.6,27.3 L49.6,27 C49.5803551,26.755723 49.5123724,26.5177834 49.4,26.3 C49.2859909,26.0689031 49.0571698,25.9163557 48.8,25.9 C48.5075964,25.9092931 48.2264146,26.0147363 48,26.2 C47.1995274,26.6134547 46.2967273,26.7870701 45.4,26.7 L43.4,26.7 C42.8262015,26.6730353 42.2518736,26.7406033 41.7,26.9 C41.6,26.9 41.5,27 41.3,27.1 C41.6,27.2 41.8,27.3 42.1,27.4 C43.2,27.8 43.4,28.9 44.3,29.5 C44.8,29.8 45.4,30 45.9,30.3 C46.4453628,30.63862 47.0133698,30.9393296 47.6,31.2 C47.7889467,31.2814441 47.9948523,31.3157617 48.2,31.3 L49.2,31.3 C49.5782238,31.2607407 49.9598018,31.3301185 50.3,31.5 C50.8,31.8 51,32.4 51.5,32.7 L51.6,32.7 C51.7,32.7 51.7,32.7 51.8,32.8 C51.9889467,32.8814441 52.1948523,32.9157617 52.4,32.9 L53,32.9 C53.1409598,32.9149638 53.2826655,32.8795374 53.4,32.8 C53.6,32.8 53.8,32.7 54,32.7 L54.2,32.7 C54.5,32.7 54.7,32.6 55,32.6 L56.3,32.6 C56.7500474,32.603818 57.19379,32.7062201 57.6,32.9 C57.705275,33.0102572 57.7749592,33.1496257 57.8,33.3 C57.8,33.5 57.7,33.7 57.7,33.9 C57.7,34.4 58,34.7 58.1,35.2 L58.1,35.6 C58.119609,36.0525085 58.0159163,36.5018434 57.8,36.9 C57.5,37.4 56.7,37.6 56.3,38.1 C55.8697564,38.5501151 55.4999787,39.0543573 55.2,39.6 C54.8,40.2 54.3,40.5 54.3,41.2 L54.3,41.3 C54.3,42.3 55.4,43.1 56.2,43.6 C57.0525719,43.992814 57.8048171,44.5740944 58.4,45.3 C58.6,45.6 58.8,46.2 59.2,46.3 L59.4,46.3 C59.6561412,46.1678259 59.8918976,45.9994285 60.1,45.8 L60.2,45.7 C60.3,45.6 60.3,45.6 60.3,45.5 L60.6,44.9 C60.8376484,44.6399013 61.1536114,44.4643664 61.5,44.4 C62.7,43.8 62.2,42.4 63.2,41.7 L63.3,41.7 L63.4,41.6 C63.5,41.6 63.6,41.5 63.7,41.5 C63.8,41.5 63.9,41.4 64,41.4 C64.2323636,41.414659 64.4488546,41.5229045 64.6,41.7 L64.9,42 C65,42.2 65.2,42.3 65.3,42.5 L65.3,42.8 L65.3,43.6 C65.4,44 65.4,44.2 65.5,44.5 C65.6481273,45.023176 65.7485379,45.5586993 65.8,46.1 L65.8,46.2 C65.8,46.8 65.2,47.1 65,47.6 C65.12,47.888 65.12,48.212 65,48.5 C64.9,48.9 64.6,49 64.2,49.1 C63.4067993,49.2360143 62.6932835,49.6641238 62.2,50.3 C61.8125659,50.7819853 61.6009359,51.3816036 61.6,52 C61.6355787,52.6895993 61.879676,53.3521489 62.3,53.9 C62.3,54 62.4,54 62.4,54.1 C62.5,54.2 62.6,54.3 62.7,54.3 C62.8173345,54.3795374 62.9590402,54.4149638 63.1,54.4 C63.2409598,54.4149638 63.3826655,54.3795374 63.5,54.3 C63.9203599,54.1642869 64.2990251,53.9233181 64.6,53.6 C64.7,53.5 64.7,53.4 64.8,53.3 L64.8,53.2 C65.0044223,52.7975808 65.1074093,52.3513034 65.1,51.9 C65.1147146,51.4225632 65.2909903,50.9642464 65.6,50.6 C66.2465147,49.8815265 66.7854531,49.0731188 67.2,48.2 C67.3055017,47.8698834 67.4754491,47.5639781 67.7,47.3 C68.1,46.8 68.5,46.5 68.5,46 L68.5,45.7 C68.4,45.2 68,44.8 67.9,44.3 C67.7841289,43.7402106 67.7172097,43.1713967 67.7,42.6 L67.7,42.3 C67.8066255,41.7173758 67.9742134,41.1475769 68.2,40.6 C68.38147,39.8762397 68.5150923,39.141317 68.6,38.4 C68.7,38.3 68.7,38.3 68.8,38.3 L69,38.3 C69.212492,38.3207135 69.4175783,38.3890756 69.6,38.5 C69.7,38.5 69.8,38.6 69.9,38.7 C70.1133114,38.8414345 70.3504706,38.9430741 70.6,39 L70.8,39 C70.9099251,39.0132315 71.0199988,38.9765403 71.1,38.9 L71.2,38.8 L71.3,38.7 C71.7790166,38.1465143 72.0293069,37.431399 72,36.7 L72,36.1 C71.9506252,35.5037707 72.1707586,34.9167483 72.6,34.5 C72.7,34.3 72.8,34.2 72.8,34.1 C72.8,34 72.6,33.7 72.6,33.5 L72.6,33.3 C72.8441097,32.8754413 73.2355099,32.5552048 73.7,32.4 L74.2,32.4 C74.3099251,32.3867685 74.4199988,32.4234597 74.5,32.5 C75.5,32.7 76.3,33.4 77.4,33.6 C78.0899742,33.7814419 78.7916383,33.9150922 79.5,34 L79.9,34 C80.0099251,33.9867685 80.1199988,34.0234597 80.2,34.1 C80.2552285,34.1 80.3,34.1447715 80.3,34.2 C81.1,34.7 81.1,35.9 81.4,36.7 C81.8832305,37.9238132 82.5960316,39.0439291 83.5,40 C84.2119235,40.5561211 85.027949,40.9641338 85.9,41.2 C86.9,41.5 86.9,42.4 87,43.4 C87,43.8 87.1,44.1 87.1,44.5 C87.1162607,44.8034543 87.082476,45.1075164 87,45.4 C86.8936894,45.7583407 86.8266292,46.1271718 86.8,46.5 C86.8185865,46.8086981 86.8860945,47.1124839 87,47.4 C87.3179593,47.8443411 87.5238042,48.3589535 87.6,48.9 C87.6,49.2 87.5,49.4 87,49.4 L86.5,49.4 C86.4,49.4 86.3,49.4 86.2,49.6 C85.9983052,49.8559435 85.8922103,50.1742284 85.9,50.5 C85.9,50.8 86,51.2 86.3,51.3 L86.4,51.3 C86.4800012,51.3765403 86.5900749,51.4132315 86.7,51.4 L86.8,51.4 C87.3,51.4 87.4,50.6 87.6,50.2 C87.6552285,50.2 87.7,50.2447715 87.7,50.3 C87.9,50.4 88,50.4 88.1,50.5 L88.9,50.5 C89.1659703,50.5071418 89.4217438,50.3975245 89.6,50.2 C90.2006942,49.5474825 90.5235253,48.6865997 90.5,47.8 C90.6,47.3 90.7,47 90.8,46.6 C90.8814441,46.4110533 90.9157617,46.2051477 90.9,46 L90.9,45.5 L90.9,45.1 C91,44.6 91.2,44.1 91.3,43.6 C91.3793037,43.1714343 91.4128254,42.7356526 91.4,42.3 C91.4,41.7 91.7,41.1 91.7,40.5 L91.7,40.4 C91.6771996,39.6733717 91.5070966,38.9589388 91.2,38.3 C91.0555616,38.0166879 90.9544365,37.7133127 90.9,37.4 C90.903405,37.214509 90.9745408,37.0366694 91.1,36.9 C91.4505405,36.6332484 91.8637603,36.4610734 92.3,36.4 C92.512492,36.3792865 92.7175783,36.3109244 92.9,36.2 C92.8,36.1 92.8,36 92.7,36 C92.2,35.5 92.2,34.8 91.8,34.2 C91.5069584,33.5557559 91.2726743,32.8863727 91.1,32.2 C90.8,31.6 90.2,31.1 90,30.5 C89.9894321,30.4241924 89.9543054,30.3539389 89.9,30.3 C89.9,29.9 90.6,29.8 90.9,29.7 C91.5071229,29.64882 92.1090957,29.5484912 92.7,29.4 C92.9,29.3 93.2,29.1 93.2,28.8 L93.2,28.6 C93.2,28.5 93.1,28.4 93.1,28.3 L93.1,28 C93.1041621,27.8599993 93.0695551,27.7215714 93,27.6 C92.7920051,27.3121829 92.5576601,27.04436 92.3,26.8 C91.8084998,26.5942059 91.3656313,26.2876047 91,25.9 C90.7255215,25.6059353 90.4242169,25.338109 90.1,25.1 C89.8,24.9 89.8,24.8 89.5,24.8 C89.2,24.8 88.2,24.6 88.3,24 L88.3,23.9 C88.4,23.7 88.6,23.5 88.7,23.3 C88.8250496,23.0514205 88.8933593,22.7781817 88.9,22.5 L88.9,22.4 C88.9,22.2 88.8,22 88.8,21.8 C88.8,21.6 88.5,20.9 88.5,20.6 C88.5,20.1 87.6,19.6 87.3,19.3 C86.8958587,18.7885188 86.6835757,18.1516697 86.7,17.5 C86.673804,17.0105304 86.4131724,16.5637333 86,16.3 L85.7,16.3 C85.6,16.3 85.5,16.3 85.4,16.1 C85.3,15.9 85.3,15.9 85.3,15.8 C85.3,15.7 85.3,15.5 85.4,15.5 C85.4800012,15.4234597 85.5900749,15.3867685 85.7,15.4 C86.2,15.4 86.8,16.3 87.2,16.4 L87.5,16.4 C87.9,16.4 88.1,16 88.1,15.5 L88.1,15.3 C88,14.6 87.3,14.3 86.8,13.8 C86.3791753,13.1800912 85.7890995,12.6941465 85.1,12.4 C84.3,12.1 84.2,11.9 83.9,11.1 C83.7,10.7 83.6,10.6 83.4,10.6 C83.2,10.6 83.1,10.7 82.8,10.7 L82.5,10.7 C81.8576499,10.4076138 81.253218,10.0382388 80.7,9.6 C80.1295416,9.1081777 79.4892286,8.70376946 78.8,8.4 C78.4,8.2 78.1,8.1 77.7,7.9 L77.1,7.6 C77.1,7.7 77.2,7.7 77.2,7.8 C78.2744512,8.92655051 79.5238892,9.87207115 80.9,10.6 C81.5,11 82.2,11.2 82.8,11.6 C83.4,12 84,12.5 84.6,12.9 C85.2,13.3 85.7,13.4 85.8,14 L85.8,14.3 C85.8,14.6 85.7,14.8 85.4,14.8 C85.2900749,14.8132315 85.1800012,14.7765403 85.1,14.7 C84.8,14.6 84.7,14.4 84.4,14.3 C84.1,14.2 83.9,14.2 83.7,13.9 C83.3,13.5 83.1,13.2 82.6,13.2 C82.4277711,13.1933329 82.2564162,13.2276039 82.1,13.3 L82.1,13.4 C82.1,13.8 82,14 81.6,14 C80.8,14 80.3,13.1 79.6,12.8 C79.1409359,12.6612622 78.7034079,12.4593262 78.3,12.2 C78.0666004,11.9159706 77.9268688,11.5666417 77.9,11.2 C77.6960879,10.428481 77.1401251,9.79838987 76.4,9.5 C75.7,9.1 75.4,8.3 74.9,7.7 C74.6071973,7.31961982 74.2308286,7.01168184 73.8,6.8 C73.4,6.6 72.8,6.8 72.4,6.6 C71.5,6.2 71.2,5.1 70.8,4.4 C70.435447,3.81403466 69.8646016,3.38590055 69.2,3.2 C68.9,3.1 67.8,2.6 67.8,2 C67.8,1.9 67.9,1.8 68,1.6 C70.6299702,2.46855924 73.2018587,3.50399486 75.7,4.7 C72.4468784,3.04431468 69.027892,1.73705518 65.5,0.8" id="SVGID-2"></path>
                <path d="M109.2,81.8 C108.3,81.9 108.4,83.5 108.2,84.2 C108.109131,84.5171281 107.974503,84.8200426 107.8,85.1 C107.605415,85.5412739 107.503315,86.0177398 107.5,86.5 L107.5,87.1 C107.516261,87.4034543 107.482476,87.7075164 107.4,88 C107.222092,88.3837356 107.087915,88.7862665 107,89.2 C107,89.6 107.1,90 107.1,90.5 C106.997138,91.3916657 106.689083,92.2473741 106.2,93 C106.2,93.0552285 106.155228,93.1 106.1,93.1 C105.845756,93.9094365 105.711003,94.7516448 105.7,95.6 C105.7,96.2 105.8,96.7 106.2,96.7 C106.309925,96.7132315 106.419999,96.6765403 106.5,96.6 C106.9,96.4 106.9,96 107,95.7 C107.2,95.2 107.5,94.8 107.7,94.3 C108.1,93.4 108.2,92.4 108.5,91.5 C108.581444,91.3110533 108.615762,91.1051477 108.6,90.9 C108.6,90.5 108.5,90 108.5,89.6 C108.470072,89.3180804 108.540925,89.034669 108.7,88.8 C108.9,88.5 109.2,88.4 109.4,88.1 C109.569855,87.8702829 109.64177,87.5826233 109.6,87.3 L109.6,87.1 L109.6,86.8 C109.716089,86.1392041 109.782939,85.4706987 109.8,84.8 L109.8,83.4 L109.8,83 C109.9,82.7 109.3,82 109.2,81.8" id="SVGID-3"></path>
                <path d="M71.3,50.6 C70.5441932,50.7059121 69.8049274,50.90753 69.1,51.2 C68.4794973,51.5134029 67.9337866,51.9567928 67.5,52.5 L67,53 C66.7,53.3 66.8,53.6 66.6,54 C66.4,54.7 65.8,54.6 65.2,54.6 C64.9,54.6 64.4,54.6 64.2,54.8 C64,55 63.8,55.4 63.6,55.6 C63,56 62.2,55.6 62.1,56.4 L62.1,57.1 C62.1149638,57.2409598 62.0795374,57.3826655 62,57.5 C61.7,58.1 60.8,58.1 60.3,58.3 C60.1,58.4 60,58.5 59.8,58.6 L59.3,58.6 C59.0783913,58.7600179 58.9630414,59.0291675 59,59.3 C58.9762845,59.5379858 59.0105971,59.778174 59.1,60 C59.2,60.4 59.7,60.4 59.8,60.7 L59.8,60.8 C59.8,61.2 59,61.8 58.9,62.2 L58.9,62.6 C58.9210573,62.7616286 58.8419372,62.9198687 58.7,63 C58.3,63.5 57.6,63.4 57.1,63.6 C56.8,63.7 56.7,64 56.4,64.1 L56.3,64.1 C56.2,64.1 56.1,64.2 56,64.2 L52.2,64.2 C51.9622368,64.1839016 51.7237451,64.2179718 51.5,64.3 C51.1,64.4 50.2,64.6 50,65.1 C50.7807404,65.4660717 51.6385197,65.6376276 52.5,65.6 C52.9,65.6 53.2,65.7 53.5,65.7 L54.3,65.7 C55.0763391,65.6987362 55.8493109,65.5979138 56.6,65.4 C56.7,65.4 56.8,65.4 56.8,65.3 C57.8,65 59.1,64.7 59.7,63.8 C60,63.4 60,63.2 60.5,62.9 C60.9838159,62.7426554 61.4523947,62.5418359 61.9,62.3 C62.2,62.1 62.4,61.8 62.7,61.7 L63.1,61.7 C63.5,61.6 63.6,61.1 63.7,60.7 C63.8,60.3 63.8,60.2 64.3,60 C64.8,59.8 64.9,59.9 65,59.3 C65.1,58.7 65,58.6 65.3,58.2 C65.4,58.1 65.6,58 65.6,57.9 L65.6,57.5 L65.6,57.3 C65.9,56.5 67.1,56.3 67.6,55.8 C68.1,55.3 67.6,54.8 68.1,54.4 C68.4,54.2 68.8,54.1 69.1,53.9 C69.4,53.7 69.6,53.5 69.9,53.3 C70.3,52.9 70.9,52.8 71.2,52.3 C71.2872934,52.0428863 71.3213179,51.7706901 71.3,51.5 C71.4548272,51.2199762 71.4548272,50.8800238 71.3,50.6" id="SVGID-4"></path>
                <path d="M35.3,126.8 C34.5,127.3 34.5,128 34,128.5 C33.5,129 32.8,129.2 32.6,130.1 C32.5,130.4 32.6,130.9 32.5,131.2 C32.4,131.5 32.3,131.3 32.3,131.4 C32.1229045,131.551145 32.014659,131.767636 32,132 L32,132.2 C32.2,133.3 33.7,133.6 34.5,134.2 L34.5,134 C34.5,133.7 34.6,133.5 34.8,133.5 C35,133.5 35.1,133.6 35.3,134 L35.3,133.8 C35.2585225,133.355211 35.1576245,132.917986 35,132.5 C34.9,132.3 34.2,132.2 34.2,132.1 C34.0876276,131.882217 34.0196449,131.644277 34,131.4 L34,130.3 C33.9,129.8 33.7,129.6 33.7,129.4 C33.7,129.2 33.9,129 34.3,128.5 C34.5,128.3 34.9,128.1 35,127.8 C35.1278925,127.475679 35.2282471,127.141163 35.3,126.8" id="SVGID-5"></path>
                <path d="M50.7,127 C50.3,127 49.9,127.2 49.6,127.9 C49.4,128.3 49.1,128.6 49.1,129 C49.0850362,129.14096 49.1204626,129.282665 49.2,129.4 C49.4,129.4 50,129.5 50.3,129.5 L50.5,129.5 C50.5,129.8 50,130.1 49.9,130.4 C49.4066141,130.651785 48.8510857,130.755947 48.3,130.7 L48.2,130.7 C47.9,130.7 47.7,130.6 47.5,130.6 C47.2428863,130.512707 46.9706901,130.478682 46.7,130.5 L46.6,130.5 C46.1,130.5 45.4,130.4 45,130.8 C44.9456946,130.853939 44.9105679,130.924192 44.9,131 C44.9,131.2 45,131.5 45,131.8 C45.0132315,131.909925 44.9765403,132.019999 44.9,132.1 L44.7,132.1 C44.6,132.1 44.5,132 44.4,132 C44.3199988,131.92346 44.2099251,131.886768 44.1,131.9 C43.7534314,131.88247 43.4192249,132.031006 43.2,132.3 C42.8,132.8 43,132.9 42.5,133.2 L41.9,133.2 C41.6,133.4 41.7,133.6 41.5,133.8 C41.3,134 40.4,134.5 40.4,135 C40.4,135.1 40.4,135.1 40.5,135.2 C40.6,135.3 40.7,135.1 40.8,135.1 C40.8758076,135.110568 40.9460611,135.145695 41,135.2 C40.9664807,135.451041 40.8188378,135.672505 40.6,135.8 C40.4,136.1 39.3,136.7 39.3,137.3 L39.3,137.5 C39.4,137.8 40.4,137.8 40.8,138 C41.2246267,138.374591 41.6254091,138.775373 42,139.2 L41.7,139.2 C40.8,139.2 40,138.6 39.1,138.5 L38.1,138.5 C37.9267693,138.526084 37.7498729,138.490705 37.6,138.4 C37.2,138.2 36.9,137.5 36.6,137.1 L36.6,137.2 C36.6,137.6 36.4,137.9 35.8,138 C34.7,138.3 32.1,138.4 32.1,140.2 L32.1,140.6 C32.2,140.6 32.4,140.7 32.5,140.7 C32.3240484,140.468337 32.2197601,140.190235 32.2,139.9 L32.2,139.7 C32.3366694,139.574541 32.514509,139.503405 32.7,139.5 L33.1,139.5 L34,139.8 C34.2571137,139.887293 34.5293099,139.921318 34.8,139.9 L35.4,139.9 C35.5409598,139.885036 35.6826655,139.920463 35.8,140 C36.0133114,140.141434 36.2504706,140.243074 36.5,140.3 C37.4,140.4 38.4,140.3 39.3,140.4 C39.9197904,140.591071 40.5557812,140.724964 41.2,140.8 L45.5,140.8 C45.7516017,140.756838 46.0091785,140.830431 46.2,141 C46.4,141.1 46.4,141.3 46.6,141.4 C46.8,141.5 47,141.7 47.1,141.9 L56.5,141.9 C58.8,141.6 61,141.1 63.2,140.6 C63.6088094,139.999375 63.8818106,139.316873 64,138.6 C64.3,138.4 64.9,138.5 65.1,138.3 C65.3,138.1 65.2,137.9 65.3,137.8 C65.6265208,137.271609 66.0716093,136.826521 66.6,136.5 C66.8,136.4 67.1,136.3 67.2,136.1 C67.2814441,135.911053 67.3157617,135.705148 67.3,135.5 C67.4406313,134.92198 67.7988342,134.420496 68.3,134.1 C68.6,133.8 68.9,133.7 69,133.2 L69,132.6 C69,132.3 69.4,131.9 69.4,131.6 L69.4,131.5 C69.279803,131.287094 69.0424429,131.168414 68.8,131.2 L68.7,131.2 C68.5,131.2 68.2,131.3 68.1,131.3 C67.5448597,131.456896 66.9753111,131.557405 66.4,131.6 L66.2,131.6 C65.8587783,131.581808 65.5219706,131.514447 65.2,131.4 C64.8780294,131.285553 64.5412217,131.218192 64.2,131.2 L63.9,131.2 C63.5913019,131.218587 63.2875161,131.286094 63,131.4 L62.9,131.5 C62.7,131.7 62.7,131.9 62.5,132.1 C62.1873145,132.25906 61.8486052,132.360673 61.5,132.4 L61.3,132.4 C61,132.2 61.2,131.8 61,131.5 C60.8,131.2 60.3,131.3 60.1,131 C60.1,130.9 60,130.8 60,130.7 L60,129.8 C59.9482303,129.565617 59.7400301,129.399057 59.5,129.4 C59.2,129.4 58.9,129.5 58.6,129.5 L58.4,129.5 C58.026126,129.482064 57.6562597,129.414815 57.3,129.3 L57.1,129.3 C56.9315137,129.276517 56.7645576,129.243126 56.6,129.2 L55.7,129.2 C55.4774807,129.299933 55.2417264,129.367291 55,129.4 L54.9,129.4 L54.8,129.3 C54.8,129.244772 54.7552285,129.2 54.7,129.2 C54.5,128.9 54.5,128.6 54.1,128.3 C53.8,128.2 53.5,128.2 53.2,128.1 C53.1,128.1 53.1,128.1 53,128 C52.8110533,128.081444 52.6051477,128.115762 52.4,128.1 C52.0636897,128.111686 51.7273366,128.078051 51.4,128 C51.1,127 50.9,127 50.7,127" id="SVGID-6"></path>
                <path d="M46.5,48.6 L46.3,48.6 C45.7860097,48.7213193 45.2839838,48.8886613 44.8,49.1 C44.4,49.2 43.9,49.1 43.6,49.3 C43.1,49.5 42.9,49.8 42.9,50.1 C42.9,50.4 43.2,50.8 43.8,50.9 L44.5,50.9 C45.1,50.9 45.6,50.9 45.6,51.4 C45.6,51.6163702 45.5298221,51.8269038 45.4,52 C45.3,52.3 45,52.4 44.9,52.7 C44.7,53.2 45,53.3 44.3,53.6 C43.9,53.8 43.7,53.8 43.6,54.2 L43.6,54.5 C43.6207135,54.712492 43.6890756,54.9175783 43.8,55.1 C44,55.5 44.1,55.4 44.5,55.6 C44.9278659,55.8858745 45.2453629,56.3092039 45.4,56.8 C45.7,57.4 46,57.9 46.3,58.5 C46.6,59.1 46.4,59.6 46.7,60 C46.9192249,60.2689936 47.2534314,60.4175298 47.6,60.4 L48,60.4 C48.3,60.4 48.5,60.3 48.7,60.3 L48.9,60.3 C49.35696,60.1774428 49.8270024,60.1102939 50.3,60.1 L52.9,60.1 C53.4,60 53.7,60.1 53.8,59.5 C53.9,58.9 53.7,58.8 54.1,58.4 C54.9,57.6 56.4,56.9 56.4,55.6 L56.4,55.3 C56.2,54.3 55.6,54.2 54.8,54.2 L54.2,54.2 C53.1,54.2 52.8,54.1 52.5,53.1 C52.5,53 52.4,52.9 52.4,52.8 C52.3906993,52.6936333 52.3063667,52.6093007 52.2,52.6 C52,52.4 51.7,52.4 51.4,52.3 L50.7,52.3 C49.1,52.1 49.5,51.1 48.9,50.1 C48.7,49.7 48.4,49.7 48,49.5 C47.8031741,49.4620824 47.6260806,49.3558263 47.5,49.2 L47.5,49.1 C47.2224923,48.8957248 46.9200491,48.7277008 46.6,48.6 L46.5,48.6" id="SVGID-7"></path>
                <path d="M45.6,65.2 C45.2749972,65.4403003 45.0590871,65.8001503 45,66.2 C45,66.3 45.1,66.4 45.3,66.4 L45.5,66.4 C45.9,66.3 46.1,65.9 46.3,65.5 C46.186046,65.3764781 46.0504881,65.2748097 45.9,65.2 L45.6,65.2" id="SVGID-8"></path>
                <path d="M43.7,66.7 L43.3,66.7 C43.2,66.9 42.4,67.1 42.4,67.5 L42.4,67.6 C42.4093007,67.7063667 42.4936333,67.7906993 42.6,67.8 L43.1,67.8 C43.4674637,67.7161418 43.7681056,67.4530802 43.9,67.1 L43.9,66.9 C44,66.7 43.9,66.7 43.7,66.7" id="SVGID-9"></path>
                <path d="M38.1,54.9 C37.7742284,54.8922103 37.4559435,54.9983052 37.2,55.2 L37.1,55.3 C37.1,55.4 37,55.5 37,55.6 C37,55.9 37.4,56.1 37.7,56.2 C38.2,56.4 38.4,56.2 38.4,56.7 L38.4,56.8 C38.3568737,56.9645576 38.3234825,57.1315137 38.3,57.3 C38.2867685,57.4099251 38.3234597,57.5199988 38.4,57.6 C38.6,57.9 39.2,57.8 39.5,58.1 C39.8643026,58.4288986 40.0500143,58.9117488 40,59.4 L40,59.5 C40,60.1 39.6,60.2 39.2,60.5 C38.8308931,60.7140978 38.5748271,61.0799063 38.5,61.5 C38.4967885,61.8941979 38.6827148,62.2660505 39,62.5 C39.1,62.6 39.2,62.6 39.4,62.6 C39.9,62.6 40.1,62.1 40.3,61.7 C40.5,61.3 40.5,60.7 40.8,60.5 C40.9,60.5 40.9,60.4 41,60.4 L41.1,60.4 C41.2,60.4 41.3,60.5 41.4,60.6 C41.5919257,61.0130905 41.726504,61.4504696 41.8,61.9 L41.8,62 C42.0999651,61.893723 42.3730247,61.7230607 42.6,61.5 C42.8,61.2 42.7,60.8 42.9,60.5 C43.1555191,59.9986044 43.3245609,59.4576706 43.4,58.9 C43.4,58.7 43.4,58.6 43.3,58.5 C43.2,57.3 42.1,56.8 42.1,55.5 C41.8,55.5 41.8,55.9 41.8,56.3 L41.8,56.4 C41.8,56.8 41.8,57.3 41.4,57.3 L41.2,57.3 C41.1241924,57.2894321 41.0539389,57.2543054 41,57.2 L40.9,57.2 C40.8447715,57.2 40.8,57.1552285 40.8,57.1 C40.5224923,56.8957248 40.2200491,56.7277008 39.9,56.6 C39.6,56.5 39.2,56.7 39,56.3 L39,56.1 C39,55.9 39.2,55.7 39.2,55.5 C39.2132315,55.3900749 39.1765403,55.2800012 39.1,55.2 L39,55.1 C38.9447715,55.1 38.9,55.0552285 38.9,55 C38.7826655,54.9204626 38.6409598,54.8850362 38.5,54.9 L38.1,54.9" id="SVGID-10"></path>
                <path d="M40.4,35.6 C40.0292034,35.6077247 39.6738353,35.749872 39.4,36 L39.4,36.1 C39.3,36.3 39.2,36.4 39.2,36.6 C39.284313,37.1220562 39.5719535,37.5894721 40,37.9 C40.3803647,38.1938744 40.6314184,38.6242521 40.7,39.1 C40.6970012,39.2566556 40.6235252,39.4036076 40.5,39.5 C40.2428863,39.5872934 39.9706901,39.6213179 39.7,39.6 L39.6,39.6 C39.3620142,39.5762845 39.121826,39.6105971 38.9,39.7 C38.7110494,39.9520743 38.5437851,40.2196972 38.4,40.5 C38.2420875,40.6653858 38.1375612,40.8744386 38.1,41.1 C38.1,41.2 38.2,41.3 38.3,41.4 L38.5,41.4 C38.7,41.3 38.8,41.1 38.9,41 C39.1,40.7 39.3,40.7 39.6,40.7 C39.8377632,40.6839016 40.0762549,40.7179718 40.3,40.8 C40.6,41 40.5,41.2 40.7,41.4 C40.7519047,41.4570536 40.8232143,41.4927084 40.9,41.5 L41.1,41.5 C41.4,41.4 41.5,40.5 41.6,40.3 C41.7,40.1 41.9,40 42,39.7 C42.1,39.4 42.1,39.3 42.2,39.1 C42.3,38.9 42.3,38.8 42.4,38.6 C42.5,38.4 42.7,38.3 42.8,38 L42.8,37.8 C42.71535,36.8777576 42.2870039,36.0210654 41.6,35.4 C41.230472,35.589656 40.8110635,35.6595574 40.4,35.6" id="SVGID-11"></path>
                <path d="M38.1,46.4 L38,46.4 C37.9,46.4 37.9,46.5 37.8,46.6 L37.8,46.8 C37.8,47.2 38.6,47.4 38.9,47.5 L39.6,47.5 C39.9,47.5 40.1,47.5 40.1,47.4 L40.1,47.3 C40.1,47 39.1,46.7 38.9,46.6 L38.8,46.6 C38.5822166,46.4876276 38.344277,46.4196449 38.1,46.4" id="SVGID-12"></path>
                <path d="M39.5,65.4 L39.2,65.4 C38.9,65.5 38.6,65.7 38.6,66 L38.6,66.1 C38.6,66.3 38.7,66.4 38.9,66.5 C39.0173345,66.5795374 39.1590402,66.6149638 39.3,66.6 L39.5,66.6 C39.8760581,66.5756637 40.1756637,66.2760581 40.2,65.9 C40.2,65.7 40,65.5 39.5,65.4" id="SVGID-13"></path>
                <path d="M39.1,43 C38.8294922,43.107288 38.5892209,43.2789103 38.4,43.5 L37.9,44 C37.7,44.2 37.8,44 37.7,44.2 L37.7,44.3 C37.7234825,44.4684863 37.7568737,44.6354424 37.8,44.8 C37.8816124,45.040792 37.9819178,45.2748379 38.1,45.5 C38.4173643,45.249217 38.6881548,44.9445778 38.9,44.6 C39.1444611,44.2739289 39.3150716,43.8985859 39.4,43.5 C39.3575493,43.3049394 39.2521355,43.1292497 39.1,43" id="SVGID-14"></path>
                <path d="M35.3,65.1 C35.3,65.1552285 35.2552285,65.2 35.2,65.2 C35.079803,65.4129058 34.8424429,65.5315859 34.6,65.5 L34.1,65.5 C33.6925431,65.50946 33.2885003,65.5768004 32.9,65.7 C33,66 33.4,66.2 33.7,66.4 C34.1858243,66.5928716 34.6542081,66.8270635 35.1,67.1 C35.752297,67.5009347 36.459808,67.8041537 37.2,68 C37.6078834,68.2265023 38.0454613,68.3948016 38.5,68.5 L38.6,68.5 C38.8,68.4 38.9,68.3 38.9,68.2 C38.9,67.8 37.9,67.3 37.7,67.1 C36.9,66.8 36,65.5 35.3,65.1" id="SVGID-15"></path>
                <path d="M29.3,70.2 C29.1590402,70.1850362 29.0173345,70.2204626 28.9,70.3 C28.7,70.4 28.7,70.6 28.6,70.7 C28.2983414,70.9831673 27.9116961,71.1589152 27.5,71.2 C27.2,71.2 27.1,71.1 26.8,71.1 L26.5,71.1 C25.9,71.1 26,71.4 25.6,71.6 C25.2,71.8 24.9,71.7 24.6,71.9 C24.3,72.1 24.1,72.7 24,73.1 L24,73.5 C24,73.9 24.1,74.4 24.1,74.8 C24.1301581,75.1135997 24.0601384,75.4286884 23.9,75.7 C23.5818922,76.1393811 23.1232347,76.4569132 22.6,76.6 C22.3460713,76.7746388 22.1114203,76.9757681 21.9,77.2 L21.8,77.3 L22,77.3 C22.7097944,77.3754547 23.4121685,77.5092402 24.1,77.7 C24.6559243,78.105463 25.3138986,78.3478746 26,78.4 C26.3842951,78.3822897 26.7599236,78.2798456 27.1,78.1 C27.3935508,77.7725316 27.5383596,77.3381052 27.5,76.9 C27.4827216,76.3616477 27.4157707,75.8260408 27.3,75.3 C27.5594638,75.22343 27.8296716,75.189654 28.1,75.2 L28.5,75.2 C28.7051477,75.2157617 28.9110533,75.1814441 29.1,75.1 C29.9,74.9 30.2,74.4 31.1,74.4 L31.3,74.4 C32.3,74.5 32,74.7 32.7,75.2 C32.8511454,75.3770955 33.0676364,75.485341 33.3,75.5 C33.4968259,75.4620824 33.6739194,75.3558263 33.8,75.2 C34.0083741,74.9853793 34.3018853,74.8753126 34.6,74.9 L34.7,74.9 C35.3,75 35.8,76.1 36.3,76.4 C36.6401982,76.5698815 37.0217762,76.6392593 37.4,76.6 C37.4157617,76.3948523 37.3814441,76.1889467 37.3,76 C37.2863973,75.4920468 37.1112552,75.0016488 36.8,74.6 C36.5,74.2 36.2,74.1 35.9,73.7 C35.6769615,73.2334611 35.2164353,72.9264437 34.7,72.9 L34.6,72.9 C34.4267693,72.8739159 34.2498729,72.9092951 34.1,73 C34,73 33.9,73.1 33.8,73.2 C33.7,73.3 33.7,73.3 33.6,73.3 L33.5,73.4 C33.1493726,73.7341795 32.7433301,74.0048745 32.3,74.2 C32.1826655,74.2795374 32.0409598,74.3149638 31.9,74.3 C31.7590402,74.3149638 31.6173345,74.2795374 31.5,74.2 C31.4447715,74.2 31.4,74.1552285 31.4,74.1 C30.9,73.7 30.9,72.7 30.8,72.1 C30.7022474,71.4977219 30.4231709,70.9395689 30,70.5 C29.7748379,70.3819178 29.540792,70.2816124 29.3,70.2" id="SVGID-16"></path>
                <path d="M14.9,74.6 C14.7079833,74.8330508 14.5712306,75.1065562 14.5,75.4 L14.5,75.7 C14.5,76 14.6,76.4 14.6,76.7 C14.7204392,77.4946065 14.7872569,78.2964188 14.8,79.1 C14.8202022,79.5689537 14.7866505,80.0386786 14.7,80.5 C14.4987425,81.4564327 14.0103086,82.328636 13.3,83 C12.8,83.3 12.5,83.2 12.3,83.8 C12.1518727,84.323176 12.0514621,84.8586993 12,85.4 C11.9103481,85.749188 11.775899,86.0853108 11.6,86.4 C11.3,86.8 10.9,87 10.7,87.5 C10.3824097,88.1552417 10.2117665,88.8719431 10.2,89.6 C10.1786821,89.8706901 10.2127066,90.1428863 10.3,90.4 C10.5792185,91.1858969 10.8129389,91.9872239 11,92.8 C11.1502851,93.5860143 11.4562889,94.3340236 11.9,95 C13,96.5 13.9,98.2 15,99.7 C15.9186111,100.818429 16.9968315,101.795566 18.2,102.6 C18.313954,102.723522 18.4495119,102.82519 18.6,102.9 C18.7956327,103.090543 19.0365186,103.228192 19.3,103.3 C19.4173345,103.379537 19.5590402,103.414964 19.7,103.4 C19.8728218,103.415564 20.0464583,103.380837 20.2,103.3 C20.2552285,103.3 20.3,103.255228 20.3,103.2 C20.6203472,102.924804 20.9951885,102.720345 21.4,102.6 L23,102.6 C23.3676933,102.34103 23.7722081,102.138773 24.2,102 C24.4924836,101.917524 24.7965457,101.883739 25.1,101.9 C24.9,101.8 24.8,101.6 24.6,101.5 C24,101.1 24.1,100.4 23.7,99.7 C23.3,99 22.5,99.3 22.3,98.5 C22,97.5 20.7,97 20.3,96.1 C20.1890756,95.9175783 20.1207135,95.712492 20.1,95.5 C20.1306251,95.2255955 20.1978906,94.9565335 20.3,94.7 C20.5,94.1 21.5,93.5 21.6,93.1 L21.6,92.9 C21.6,92.3 20.7,92.3 20.7,91.5 L20.7,91.3 C20.8664263,90.4402511 21.2067151,89.6235578 21.7,88.9 C22.1,88.5 22.3,88.8 22.7,88.3 C23.1,87.8 22.8,87.3 23.3,86.9 C24,86.4 25.4,86.8 25.4,86 L25.4,84.7 C25.4565146,84.1810516 25.3517629,83.6572929 25.1,83.2 C24.9890756,83.0175783 24.9207135,82.812492 24.9,82.6 C24.9,82.3 25.1,82.1 25.1,81.8 C25.1,81.5 25,81.5 24.9,81.2 C24.3924798,80.6356617 24.0469585,79.9446192 23.9,79.2 L23.9,79 C23.5,79 22.6,78.5 22.1,78.5 L22,78.5 C22,78.8 21.4,79.2 21.2,79.4 C21.0784286,79.4695551 20.9400007,79.5041621 20.8,79.5 C20.5,79.5 20.6,79 20,78.8 L18.9,78.8 C18.4380925,78.7690932 18.0236294,78.5053439 17.8,78.1 C17.3256118,77.3254982 16.6745018,76.6743882 15.9,76.2 C15.5,76 15.2,75.9 15.1,75.5 C15.0801047,75.1914869 15.0126415,74.8879028 14.9,74.6" id="SVGID-17"></path>
                <path d="M35.5,45.7 C35.3256129,45.7285302 35.1762174,45.8405768 35.1,46 C34.975327,46.3843405 34.8075949,46.7533513 34.6,47.1 C34.4,47.4 34.3,47.5 34.3,47.6 C34.3,47.7 34.5,47.9 34.9,48.1 C35.3,48.3 35.3,48.6 35.6,49 C35.8,49.3 36,49.4 36.1,49.4 L36.2,49.4 C36.6,49.3 36.7,48.2 36.8,47.9 C36.9,47.6 36.9,47.4 36.9,47.1 C36.9304355,46.6437736 36.7453787,46.1996372 36.4,45.9 L36.3,45.9 C36.1,45.9 36,45.9 35.9,45.8 C35.7784286,45.7304449 35.6400007,45.6958379 35.5,45.7" id="SVGID-18"></path>
                <path d="M36.1,42.7 C36,42.7 36,42.8 35.9,42.8 C35.7456589,42.9592396 35.6720709,43.1800036 35.7,43.4 C35.7,43.7 35.8,44.1 36,44.2 C36.2,44.3 36.1,44.3 36.2,44.3 L36.3,44.3 C36.4235252,44.2036076 36.4970012,44.0566556 36.5,43.9 C36.4906293,43.4688325 36.351204,43.0505564 36.1,42.7" id="SVGID-19"></path>
                <path d="M34.8,59.3 C34.4975992,59.2766853 34.2315988,59.4983523 34.2,59.8 L34.2,60 C34.2,60.1 34.2,60.1 34.3,60.2 C34.4,60.3 34.5,60.3 34.7,60.4 L35.2,60.4 C35.6,60.4 36.3,60.4 36.3,59.9 C36.2,59.4 35.2,59.3 34.8,59.3" id="SVGID-20"></path>
                <path d="M32.4,54 C32.0814162,54.2328544 31.8951332,54.6054203 31.9,55 C31.9266292,55.3728282 31.9936894,55.7416593 32.1,56.1 L32.1,56.4 L32.1,57.2 C32.1,57.7 32.2,58.2 32.5,58.2 L32.6,58.2 C32.93741,58.018651 33.162374,57.681205 33.2,57.3 C33.2,57 33.1,56.8 33.1,56.5 L33.1,56 C33.1293069,55.268601 32.8790166,54.5534857 32.4,54" id="SVGID-21"></path>
                <path d="M30.9,19.8 C30.6,19.8 30.3,20.1 30,20.2 C29.7516226,20.343265 29.4813352,20.4446227 29.2,20.5 C29,20.5 28.8,20.2 28.6,20.1 C28.4464583,20.0191633 28.2728218,19.984436 28.1,20 L27.8,20 C27.6,20 27.3,20.1 27.1,20.1 C27.2,20.2 27.4,20.3 27.5,20.4 C28.1,20.9 29.1,21 29.6,21.6 C29.7881231,21.86306 29.8926624,22.1766781 29.9,22.5 L29.9,22.9 C30.2,22.8 30.5,22.7 30.9,22.6 C31.5573473,22.5798858 32.124933,22.1339256 32.3,21.5 C32.3,21.4 32.4,21.3 32.4,21.2 C32.4,20.9 32.1,20.7 31.7,20.5 C31.4,20.5 31.2,20.2 30.9,19.8" id="SVGID-22"></path>
                <path d="M31.4,59.3 C30.5592673,59.5100108 29.8172149,60.0047124 29.3,60.7 C29.1,60.8 28.8,61 28.8,61.2 L28.8,61.4 C28.8,61.5 28.8,61.6 28.9,61.6 L29.1,61.6 C29.2099251,61.6132315 29.3199988,61.5765403 29.4,61.5 C29.5,61.5 29.5,61.5 29.6,61.4 C30.0322726,61.2270005 30.436633,60.9911236 30.8,60.7 C31.1146892,60.524101 31.450812,60.3896519 31.8,60.3 C31.9413613,60.1331707 32.0129915,59.9182802 32,59.7 C31.8,59.6 31.7,59.3 31.4,59.3" id="SVGID-23"></path>
                <path d="M27.5,57.1 L26.8,57.1 C26.6,57.1 26.5,57.2 26.4,57.2 C26.3,57.2 26.2,57.3 26.1,57.3 C25.5,57.8 25.8,58.8 25.4,59.4 C25.3,59.5 25.2,59.6 25.2,59.7 C24.924,59.9626794 24.5757435,60.1368077 24.2,60.2 C24.0590402,60.2149638 23.9173345,60.1795374 23.8,60.1 L23.7,60.1 L23.7,60.2 C23.7097741,60.2821745 23.6813244,60.364293 23.6228087,60.4228087 C23.564293,60.4813244 23.4821745,60.5097741 23.4,60.5 L23.2,60.5 C22.7,59.9 22.3,59.9 21.5,59.7 L21.5,59.6 C21.5,59.4 21.4,59.3 21.4,59.1 L21.1,59.1 C20.9590402,59.0850362 20.8173345,59.1204626 20.7,59.2 L20.6,59.2 C20,59.4 19.9,59.7 19.6,60.1 C19.5,60.3 19.6,60.3 19.5,60.4 C19.2330996,60.5710206 18.9142127,60.6418844 18.6,60.6 L17.9,60.6 C17.5407703,60.5703956 17.1836114,60.6775432 16.9,60.9 C16.5,61.2 16.3,61.7 15.9,62 C15.4741646,62.2258306 15.1258306,62.5741646 14.9,63 C14.6935402,63.3950496 14.3307347,63.685294 13.9,63.8 C13.7,63.9 13.4,64 13.2,64.1 C12.8008549,64.9792872 12.596195,65.9343664 12.6,66.9 L12.6,67.2 L12.7,67.2 C12.8,67.2 12.9,67.1 13,67.1 C13.4231464,66.7882312 13.8966971,66.5514559 14.4,66.4 L14.7,66.4 C14.8,66.4 14.8,66.4 14.9,66.5 C15,66.5 15.1,66.7 15.2,66.7 C15.3,66.7 15.7,66.8 15.9,66.9 C16.1,67 16.2,67.3 16.2,67.6 L16.2,67.7 C16.2,67.8 16.1,67.9 16,68.2 C16.5041053,68.3294394 16.9572771,68.6083143 17.3,69 C17.6056838,68.8581333 17.8782165,68.6537338 18.1,68.4 C18.6,67.8 18.2,67.1 19.2,67 L20,67 C20.2826233,67.0417698 20.5702829,66.9698549 20.8,66.8 C21.0893772,66.5525194 21.2388728,66.1787806 21.2,65.8 C21.2149638,65.6590402 21.1795374,65.5173345 21.1,65.4 C20.9,64.9 19.8,64.1 19.8,63.6 C19.8,63.4 20,63.2 20.6,63.2 L21,63.2 C21.3034543,63.2162607 21.6075164,63.182476 21.9,63.1 C22.3271612,62.8826553 22.7023728,62.5756641 23,62.2 C23.3361366,61.9217127 23.7641184,61.7790521 24.2,61.8 L24.9,61.8 C25.1,61.6 25.2,61.5 25.3,61.5 L25.5,61.5 C26.0681505,61.6009495 26.5722867,61.9250371 26.9,62.4 C27,62.5 27.1,62.5 27.2,62.6 C27.2758076,62.5894321 27.3460611,62.5543054 27.4,62.5 C27.4765403,62.4199988 27.5132315,62.3099251 27.5,62.2 C27.5,61.8 27,61.3 27,60.9 L27,60.7 C26.9922103,60.3742284 27.0983052,60.0559435 27.3,59.8 C27.6,59.4 27.9,59.4 28.3,59.3 C28.7333092,59.1642525 29.0207659,58.7536001 29,58.3 C29.0132315,58.1900749 28.9765403,58.0800012 28.9,58 C28.7,57.7 28.1,57.6 27.4,57.6 C27.6,57.1 27.5,57.1 27.5,57.1" id="SVGID-24"></path>
                <path d="M25.7,62.1 C25.7,62.4 25.4,62.8 25.3,63.1 C25.2234597,63.1800012 25.1867685,63.2900749 25.2,63.4 C25.2145168,63.6146136 25.3853864,63.7854832 25.6,63.8 L25.9,63.8 C26.0099251,63.8132315 26.1199988,63.7765403 26.2,63.7 C26.2552285,63.7 26.3,63.6552285 26.3,63.6 C26.5765008,63.4449799 26.789092,63.1969568 26.9,62.9 C26.8,62.8 26.7,62.7 26.6,62.7 C26.3,62.4 26.2,62.2 25.8,62.1 C25.8,62.2 25.8,62.2 25.7,62.1" id="SVGID-25"></path>
                <path d="M20.3,105.2 C20,105.2 19.8,105.6 19.8,105.9 C19.8,106.4 20.4,106.5 20.8,106.7 C20.9786885,106.778583 21.1214166,106.921311 21.2,107.1 C21.4,107.3 21.4,107.7 21.6,107.9 C21.6800012,107.97654 21.7900749,108.013232 21.9,108 C22.1862534,107.994672 22.4500813,107.843914 22.6,107.6 C22.6765403,107.519999 22.7132315,107.409925 22.7,107.3 C22.7,107.1 22.6,106.8 22.6,106.6 L22.6,106.5 C22.6,106.3 22.7,106.1 22.7,105.9 C22.7132315,105.790075 22.6765403,105.680001 22.6,105.6 C22.3,105.6 22.1,105.8 21.9,105.8 L21.6,105.8 C21.3141011,105.761692 21.040592,105.659126 20.8,105.5 C20.7,105.4 20.6,105.2 20.5,105.2 C20.4,105.2 20.3,105.3 20.3,105.2" id="SVGID-26"></path>
                <path d="M1.3,107.4 C0.9,107.6 0.8,107.8 0.8,108 C0.8,108.6 1.7,109.2 2.1,109.7 C2.5539403,110.331058 3.23511375,110.761273 4,110.9 C4.8412202,111.231435 5.6192133,111.704996 6.3,112.3 C7.26079021,113.296744 8.46838318,114.0213 9.8,114.4 C10,114.4 10.4,114.5 10.7,114.5 L10.9,114.5 C11.2,114.5 11.5,114.4 11.5,114.2 C11.5132315,114.090075 11.4765403,113.980001 11.4,113.9 C11.2393727,113.649778 10.9887919,113.470792 10.7,113.4 C10.1,113.2 9.6,112.9 9,112.7 C8.6738204,112.549435 8.34003701,112.415922 8,112.3 C7.6,112.1 7.2,112.1 6.8,111.9 C6.11793913,111.643062 5.5266682,111.190913 5.1,110.6 C5,110.5 4.9,110.3 4.8,110.2 C4.7,110.1 4.4,110.1 4.1,110 C3.64093592,109.861262 3.20340791,109.659326 2.8,109.4 C2.47842046,109.076597 2.20858843,108.705578 2,108.3 C2,108 1.5,107.5 1.3,107.4" id="SVGID-27"></path>
            </g>
            <g id="FRG" transform="translate(18.000000, 0.000000)">
                <path d="M39.1,76.5 C38.2,76.5 37.9,77 37.1,77.2 C36.9110533,77.2814441 36.7051477,77.3157617 36.5,77.3 L36.1,77.3 C35.8293099,77.2786821 35.5571137,77.3127066 35.3,77.4 C35.4157707,77.9260408 35.4827216,78.4616477 35.5,79 C35.5060382,79.4336987 35.3650498,79.8566639 35.1,80.2 C34.7646581,80.3915465 34.3861566,80.4947742 34,80.5 C33.317113,80.4334816 32.6628162,80.1924249 32.1,79.8 C31.4217079,79.5707958 30.7150557,79.4361953 30,79.4 L29.9,79.4 C29.3,79.4 28.7,79.8 28.1,79.8 L28,79.8 C27.9,79.8 27.8,79.7 27.7,79.7 L27.7,80.4 L27.9,80.4 C28.4,80.6 28.3,81.1 28.7,81.1 C28.8400007,81.1041621 28.9784286,81.0695551 29.1,81 C29.4,80.9 29.9,80.4 29.9,80.1 L30,80.1 C30.5,80.1 31.4,80.6 31.8,80.6 L31.8,80.8 C31.9035174,81.5587458 32.2551138,82.2619386 32.8,82.8 C32.9543411,82.9592396 33.0279291,83.1800036 33,83.4 C33,83.7 32.8,83.9 32.8,84.2 C32.7870085,84.4182802 32.8586387,84.6331707 33,84.8 C33.1955657,85.2760448 33.297428,85.7853564 33.3,86.3 L33.3,87.6 C33.3,88.4 31.8,88 31.2,88.5 C30.7,88.8 31,89.4 30.6,89.9 C30.2,90.4 30.1,90.1 29.6,90.5 C29.0661045,91.2008549 28.7217102,92.0274013 28.6,92.9 L28.6,93.1 C28.6,93.9 29.5,93.9 29.5,94.5 L29.5,94.7 C29.4,95.2 28.4,95.8 28.2,96.3 C28.050899,96.5390143 27.9809176,96.8189399 28,97.1 C28.0207135,97.312492 28.0890756,97.5175783 28.2,97.7 C28.6,98.6 30,99.1 30.2,100.1 C30.4,100.9 31.2,100.6 31.6,101.3 C32,102 31.9,102.7 32.5,103.1 C33.7,103.8 33.7,104.4 34.3,105.8 C34.5394382,106.396714 34.8411047,106.966528 35.2,107.5 C35.4,107.8 35.6,108.8 35.9,109 C36.2,109.2 37,110 37.5,110.1 C38.7209496,110.495177 39.845239,111.142495 40.8,112 C41.8,112.8 43,112.4 43.3,113.7 C43.3901816,114.194581 43.4237312,114.697825 43.4,115.2 C43.4,116.1 43.3,117.1 43.3,117.8 L43.3,118.5 C43.3,118.9 43.4,119.2 43.4,119.5 C43.4231947,119.877441 43.3545694,120.25488 43.2,120.6 C42.973765,121.043199 42.8057087,121.513756 42.7,122 L42.7,122.8 C42.5324684,123.290248 42.3988203,123.791429 42.3,124.3 L42.3,124.5 C42.4,125.2 43.1,125.7 43.4,126.3 C43.4872934,126.557114 43.5213179,126.82931 43.5,127.1 C43.4827216,127.638352 43.4157707,128.173959 43.3,128.7 C43.2483673,129.014013 43.1471015,129.31781 43,129.6 C42.8,129.9 42.5,130 42.3,130.3 C41.8,130.8 41.7,131 41.7,131.2 C41.7,131.4 41.9,131.6 42,132.1 L42,133.2 C41.9763472,133.450174 42.0477498,133.700084 42.2,133.9 C42.2,134 42.9,134.1 43,134.3 C43.2044223,134.702419 43.3074093,135.148697 43.3,135.6 L43.3,135.8 C43.1,135.5 42.9,135.3 42.8,135.3 C42.7,135.3 42.5,135.5 42.5,135.8 L42.5,136 C42.5,136.1 42.5,136.1 42.6,136.2 C43.1,137 43.7,137.8 44.3,138.7 C44.4,138.8 44.4,138.9 44.5,139 C44.8,139.5 45.1,140.2 45.5,140.3 C45.6498729,140.390705 45.8267693,140.426084 46,140.4 L47,140.4 C47.9,140.5 48.7,141.1 49.6,141.1 L49.9,141.1 C49.5515998,140.65153 49.1484704,140.2484 48.7,139.9 C48.4,139.7 47.4,139.7 47.2,139.4 L47.2,139.2 C47.2,138.6 48.3,138 48.5,137.7 C48.7,137.4 48.9,137.2 48.9,137.1 C48.9,137 48.9,137 48.7,137 C48.5900749,136.986768 48.4800012,137.02346 48.4,137.1 C48.4,137 48.4,137 48.3,136.9 C48.3,136.5 49.1,136 49.4,135.7 C49.7,135.4 49.5,135.3 49.8,135.1 L50.4,135.1 C50.9,134.8 50.7,134.7 51.1,134.2 C51.3089929,133.917936 51.6505858,133.766117 52,133.8 C52.1,133.8 52.2,133.9 52.3,133.9 C52.4,133.9 52.4,134 52.6,134 L52.8,134 C52.9,134 52.9,133.9 52.9,133.7 C52.9,133.5 52.8,133.2 52.8,132.9 C52.8,132.8 52.8,132.7 52.9,132.7 C53.3,132.4 54,132.5 54.5,132.4 L54.6,132.4 C54.9,132.4 55.1,132.5 55.4,132.5 C55.6237451,132.582028 55.8622368,132.616098 56.1,132.6 L56.2,132.6 C56.7510857,132.655947 57.3066141,132.551785 57.8,132.3 C57.9,132.1 58.4,131.7 58.4,131.4 L58.2,131.4 C57.9,131.4 57.2,131.3 57.1,131.3 C57,131.3 56.9,131.1 57,130.9 C57.1006596,130.506775 57.2699217,130.134398 57.5,129.8 C57.8,129.1 58.2,128.9 58.6,128.9 C58.8374207,128.891493 59.074458,128.925356 59.3,129 C59.6273366,129.078051 59.9636897,129.111686 60.3,129.1 C61.5,129.1 61.8,128.2 62.5,126.9 C62.6549054,126.992963 62.8237148,127.060487 63,127.1 C63.9,127.1 64.4,125.6 64.9,125.1 C65.4,124.6 66.1,124.5 66.6,124.1 C66.8940647,123.825521 67.161891,123.524217 67.4,123.2 L68.7,121.9 C69.1,121.3 69,120.9 69.7,120.5 C70.2749995,120.206877 70.8780377,119.972362 71.5,119.8 C72.3,119.5 72.9,118.9 73.7,118.6 C75.228246,118.095186 76.6515549,117.315755 77.9,116.3 C78.9277195,115.337039 79.8042531,114.224515 80.5,113 C80.8816878,112.365159 81.0886867,111.640663 81.1,110.9 C81.0915742,110.189946 80.9907264,109.484011 80.8,108.8 C80.7059489,108.438844 80.6390951,108.071148 80.6,107.7 C80.6,107.6 80.6,107.5 80.7,107.5 C80.7800012,107.42346 80.8900749,107.386768 81,107.4 L81.6,107.4 C82,107.2 81.8,107.1 82.1,106.9 C82.545142,106.475551 83.0124639,106.074989 83.5,105.7 C84.2,105.2 84.1,105.1 84.3,104.2 C84.5,103.3 84.9,103 85.6,102.4 C86.0626334,101.790801 86.4332573,101.116939 86.7,100.4 C87.2,99.7 87.8,99.4 87.8,98.7 C87.8149638,98.5590402 87.7795374,98.4173345 87.7,98.3 C87.4,96.9 86,97.3 84.9,96.6 C84.6,96.4 84,96.1 83.9,95.8 C83.6,95.3 84,94.9 83.3,94.5 C82.9963914,94.3287552 82.6461174,94.2587004 82.3,94.3 C81,94.3 79.3,95.2 78,95.2 C76.8,95.2 76.5,94.3 75.4,93.9 C75.2,93.9 75.1,93.8 74.9,93.8 C74.6294501,93.7837694 74.3582301,93.8176719 74.1,93.9 C73.8,93.9 73.6,94 73.3,94 C73.0180804,94.0299277 72.734669,93.9590748 72.5,93.8 C71.9,93.4 72,92.6 71.2,92.3 C71.0435838,92.2276039 70.8722289,92.1933329 70.7,92.2 C69.9,92.2 69.5,93.1 68.7,93.3 C68.6,93.3 68.5,93.4 68.4,93.4 C67.7441398,93.3315866 67.2589136,92.7581375 67.3,92.1 C67.2850362,91.9590402 67.3204626,91.8173345 67.4,91.7 C67.6,91 68.7,91 68.7,90.2 C68.5900749,90.2132315 68.4800012,90.1765403 68.4,90.1 C68.2814073,89.2907335 68.1144415,88.489298 67.9,87.7 C67.4419977,86.9877155 66.7798367,86.4301062 66,86.1 C64.8,85.3 64.3,84.5 62.8,84.5 L62.7,84.5 C62.3305013,84.4835648 61.9604777,84.5172033 61.6,84.6 C61.2,84.6 60.9,84.7 60.5,84.7 C60.2622368,84.7160984 60.0237451,84.6820282 59.8,84.6 C58.7264087,84.2631784 57.713612,83.7567801 56.8,83.1 C55.9,82.6 55.9,82.3 55.7,81.3 C55.3,79.2 53.6,79.4 51.8,79.2 L51.5,79.2 C50.6247304,79.3183143 49.7567221,79.4852389 48.9,79.7 L48.6,79.7 C47.7,79.7 47.2,79.2 46.4,78.7 C45.7,78.4 45,78.6 44.3,78.3 C43.6,78 43.3,76.8 42.6,76.8 L42.5,76.8 C42.2097652,76.8197601 41.931663,76.9240484 41.7,77.1 C41.5,77.3 41.4,77.4 41.2,77.4 C40.980499,77.3449965 40.7757034,77.2425987 40.6,77.1 C39.9,76.6 40.2,76.4 39.2,76.3 C39.2,76.5 39.1,76.5 39.1,76.5" id="Shape" fill="url(#radialGradient-1)"></path>
                <path d="M110.9,33.2 C111.2,33.5 111.8,34.5 111.1,34.7 C110.941742,34.2165342 110.873943,33.7080412 110.9,33.2" id="Shape" fill="#1864B3"></path>
                <path d="M107.5,32.3 C107.320706,32.222734 107.152549,32.1218399 107,32 C106.6,31.7 106.3,31.4 106.5,30.9 C106.763481,30.9718078 107.004367,31.1094569 107.2,31.3 C107.4,31.4 108.4,32.8 107.9,32.7 C107.8,32.7 107.6,32.4 107.5,32.3" id="Shape" fill="#1864B3"></path>
                <path d="M106.1,40.2 C106.684252,40.3152875 107.290499,40.2083029 107.8,39.9 C108.098988,39.4238931 108.206203,38.8520802 108.1,38.3 C108.010765,37.7913312 108.080607,37.2675185 108.3,36.8 C108.6,36.4 109.3,36.5 109.7,36.2 C110.1,35.9 110.3,35.1 110.8,35.6 C111,35.8 110.9,36.1 111,36.3 C111.1,36.5 111.4,36.7 111.6,37 C111.8,37.3 112.2,38.1 112.7,38.4 C112.9,38.5 113.1,38.5 113.3,38.6 C113.5,38.7 113.5,38.9 113.7,38.9 C113.9,38.9 114,38.8 114.1,38.8 C114.3,39.2 115.1,40 115.6,39.9 C116.1,39.8 116.1,38.4 115.9,38.1 C115.7,37.8 115.4,37.8 115.3,37.6 C115.041725,37.268262 114.839083,36.8967521 114.7,36.5 C114.6,35.9 114.8,35.9 115.1,36.3 C115.8,37 115.9,35.9 116.1,35.6 C130.723286,60.5331264 129.030428,91.7919488 111.8,115 C111.4,113.7 112.7,112.6 113.2,111.6 C113.252548,111.189611 113.353242,110.786837 113.5,110.4 C113.677072,110.050748 113.811375,109.681414 113.9,109.3 C114.1,108.8 114.3,108.7 114.9,108.4 C115.2,108.2 116.2,107.6 116.1,107.2 C116.2,107.1 116.1,106.9 116.2,106.7 C116.310924,106.517578 116.379287,106.312492 116.4,106.1 C116.5,105.8 116.5,105.5 116.6,105.2 C116.865706,104.743902 117.166621,104.309248 117.5,103.9 C117.7,103.6 117.7,103.2 117.9,102.9 C118.111352,102.487576 118.345032,102.086981 118.6,101.7 C118.8,101.4 119.1,100.3 119.4,100.3 C119.6,100.1 119.5,99.8 119.6,99.5 C119.7,99.2 119.8,99 119.9,98.7 C120.125816,98.3632084 120.294735,97.9915875 120.4,97.6 C120.487858,97.2743897 120.521641,96.9365601 120.5,96.6 C120.443396,96.113044 120.548833,95.6210051 120.8,95.2 C121.010624,94.8377197 121.081742,94.4110079 121,94 C121.016524,93.5311055 120.983001,93.0617857 120.9,92.6 C120.733359,92.0390923 120.768747,91.4375022 121,90.9 C121.146212,90.4049261 121.465668,89.9789846 121.9,89.7 C122,89.6 122.2,89.5 122.3,89.4 C122.4,89.3 122.6,88.9 122.8,88.8 C122.813741,88.2315429 122.780292,87.6629257 122.7,87.1 C122.8,86.6 123,86.1 123.1,85.5 C123.23899,84.9276627 123.168024,84.3244534 122.9,83.8 C122.429216,82.9110891 122.25407,81.895241 122.4,80.9 C122.505329,80.4771174 122.673895,80.072559 122.9,79.7 L123.2,78.5 C123.3,77.6 123.5,76.5 122.9,75.9 C122.721744,75.7024755 122.46597,75.5928582 122.2,75.6 C122,75.6 121.7,75.8 121.5,75.6 C121.3,75.4 121.5,74.9 121.4,74.7 C121.173073,74.3832174 120.782797,74.227107 120.4,74.3 C119.897919,74.3670387 119.45499,74.6623244 119.2,75.1 C119.055562,75.3833121 118.954437,75.6866873 118.9,76 C118.678217,76.2537338 118.405684,76.4581333 118.1,76.6 C117.6,76.8 116.8,76.7 116.4,77.1 L115.5,78 C115.261891,78.3242169 114.994065,78.6255215 114.7,78.9 C114.2,79.2 114.3,79.1 114,78.7 C113.529865,78.2748491 112.988172,77.936291 112.4,77.7 C111.9,77.5 111.7,77 111.3,76.7 C110.784703,76.434852 110.365148,76.0152974 110.1,75.5 C110,75.2 110,74.8 109.8,74.6 C109.6,74.4 109.5,74.4 109.3,74.2 C109.1,74 109.1,73.5 108.9,73.2 L108.3,72 C108.1,71.6 108.1,71.3 107.6,71.2 C107.1,71.1 106.7,71.2 106.5,70.9 C105.9,70.2 106.1,69 106,68.2 C106,67.2 105.9,66.2 105.9,65.3 C105.904637,64.3914329 105.803965,63.4853891 105.6,62.6 C105.277047,61.5703143 104.8054,60.5933318 104.2,59.7 C104,59.4 103.7,59.1 103.7,58.8 C103.787915,58.3862665 103.922092,57.9837356 104.1,57.6 C104.343722,57.0683092 104.447012,56.4829969 104.4,55.9 C104.283659,55.0043702 104.216891,54.1029965 104.2,53.2 C104.133365,52.5986039 104.167159,51.9903142 104.3,51.4 C104.6,50.5 105.9,50.1 106.2,49.1 C106.36696,48.4382881 106.332134,47.7417572 106.1,47.1 C105.895725,46.8224923 105.727701,46.5200491 105.6,46.2 C105.549969,45.868544 105.549969,45.531456 105.6,45.2 C105.5,43.8 105.6,42.5 105.5,41.2 C105.5,40.9 105,40.4 105.4,40.2 C105.5,39.7 105.8,40.2 106.1,40.2" id="Shape" fill="#1864B3"></path>
                <path d="M105.4,38 C104.9,38.2 105.3,38.5 105.2,38.9 C105.1,39.1 105,39.2 104.8,39.2 C104.6,39.2 104.5,39.1 104.3,39.1 C104.1,39.1 104,38.7 103.8,38.7 C103.6,38.7 103.3,38.8 103.1,38.8 C102.3,38.8 102.2,38.3 101.8,37.8 C101.4,37.3 101.3,36.6 100.9,36 C100.606958,35.3557559 100.372674,34.6863727 100.2,34 C99.9,33.4 99.3,32.9 99.1,32.3 C98.9,31.7 99.7,31.6 100.1,31.5 C100.707123,31.44882 101.309096,31.3484912 101.9,31.2 C102.1,31.1 102.4,30.9 102.4,30.6 L102.4,30.5 L103.7,30.5 C103.754305,30.5539389 103.789432,30.6241924 103.8,30.7 C103.9,30.8 104.1,30.9 104.3,31.1 C104.410924,31.2824217 104.479287,31.487508 104.5,31.7 C104.6,32 104.6,32.2 104.9,32.4 C105.2,32.6 105.3,32.6 105.3,33 C105.268496,33.377888 105.337495,33.7573863 105.5,34.1 C105.5,34.2 105.6,34.2 105.6,34.3 C105.6,34.4 105.6,34.6 105.7,34.7 C105.8,34.8 106,35 106.2,35.2 C106.625836,35.8112939 106.771297,36.5749666 106.6,37.3 C106.2,37.8 105.8,37.8 105.4,38" id="Shape" fill="#1864B3"></path>
                <path d="M102.3,51 C102.2,51.3 101.9,51.2 101.7,51.3 C101.5,51.4 101.1,51.9 100.7,51.8 C100.3,51.7 100.6,51.2 100.8,51 C101.1,50.6 101.6,50.7 102.1,50.7 C102.3,50.6 102.4,50.8 102.3,51" id="Shape" fill="#1864B3"></path>
                <path d="M96.1,18.3 C96.8,18.5 97,17.9 97,17.3 C97,16.7 96.2,16.3 95.7,15.8 C95.2791753,15.1800912 94.6890995,14.6941465 94,14.4 C93.2,14.1 93.1,13.9 92.8,13.1 C92.6,12.7 92.5,12.6 92.3,12.6 L92.8,11.3 C101.920302,17.1520255 109.609581,24.9780023 115.3,34.2 C115,34 114.3,33.6 114,33.4 C113.561167,33.1404497 113.090593,32.9387752 112.6,32.8 C111.915108,32.3653745 111.334625,31.7848917 110.9,31.1 C110.642269,30.892411 110.407589,30.6577308 110.2,30.4 C110,30.1 109.9,29.7 109.6,29.5 C109.180775,29.047761 108.711035,28.6451269 108.2,28.3 C107.824987,28.1523417 107.457833,27.9854537 107.1,27.8 C106.842269,27.592411 106.607589,27.3577308 106.4,27.1 C106.1,26.8 105.1,26.4 105,27 C104.9,27.6 105.4,27.8 105.7,28.1 C106.295164,28.5574621 106.931182,28.9591574 107.6,29.3 C108.1,29.7 108.7,29.9 109.2,30.3 C109.5,30.6 110.4,31.3 110.3,31.8 C110,31.7 109.7,31.7 109.4,31.6 C109.1,31.5 108.8,31.1 108.4,30.9 C108.00381,30.7231199 107.659534,30.4476995 107.4,30.1 C107.167411,29.7909568 106.856787,29.54936 106.5,29.4 C106,29.1 105.4,28.2 104.8,28.2 C104,28.2 104.4,28.9 104.3,29.4 C104.2,29.9 103.1,30.1 103.4,30.5 L102.1,30.5 C102.1,30.4 102,30.3 102,30.2 C102.02484,29.9945498 101.99013,29.7862885 101.9,29.6 C101.692005,29.3121829 101.45766,29.04436 101.2,28.8 C100.7085,28.5942059 100.265631,28.2876047 99.9,27.9 C99.6255215,27.6059353 99.3242169,27.338109 99,27.1 C98.7,26.9 98.7,26.8 98.4,26.8 C98.1,26.8 97,26.5 97.2,25.9 C97.3,25.7 97.5,25.5 97.6,25.3 C97.7139055,25.0124839 97.7814135,24.7086981 97.8,24.4 C97.8,24.2 97.7,24 97.7,23.8 C97.7,23.6 97.4,22.9 97.4,22.6 C97.4,22.1 96.5,21.6 96.2,21.3 C95.7958587,20.7885188 95.5835757,20.1516697 95.6,19.5 C95.573804,19.0105304 95.3131724,18.5637333 94.9,18.3 L94.6,18.3 C94.5,18.3 94.4,18.3 94.3,18.1 C94.2,17.9 94.2,17.6 94.4,17.5 C94.9,16.9 95.6,18.2 96.1,18.3" id="Shape" fill="#1864B3"></path>
                <path d="M90.8,22.4 C90.5,22.1 89.9,22 89.8,21.5 C89.7,21.2 89.6,20.4 90.7,20.7 C91.2,20.8 91.7,21.6 92,21.9 C92.2913121,22.1163767 92.4544871,22.4645879 92.4343582,22.8269088 C92.4142292,23.1892297 92.2134873,23.5172232 91.9,23.7 C91.4,24 91.3,24 91.2,23.4 C91.272893,23.0172029 91.1167826,22.6269269 90.8,22.4" id="Shape" fill="#1864B3"></path>
                <path d="M90.8,19.7 C90.3,19.5 89.9,19.6 89.4,19.2 C89.0226444,18.9298484 88.6209029,18.6954991 88.2,18.5 C87.9,18.3 87.5,17.4 88.1,17.2 C88.7,17 89.8,17.9 90.1,18.1 C90.4,18.3 90.6,18.6 90.9,18.8 C91.1542993,19.0868019 91.4594261,19.3241227 91.8,19.5 C92.2,19.7 92.4,20 92.9,20.1 C93.3360738,20.2178062 93.7441108,20.4218247 94.1,20.7 C94.8319072,21.0154973 95.4818506,21.4944029 96,22.1 C96.4,22.7 96.4,23.2 95.8,23.6 C95.6,23.8 95.1,24.1 94.8,24 C94.5,23.9 94.5,23.6 94.3,23.5 C93.7,22.9 93.2,22.9 92.9,22 C92.8,21.5 92.4,21.2 92.1,20.7 C91.8,20.2 91.5,20 90.8,19.7" id="Shape" fill="#1864B3"></path>
                <path d="M76.8,3.7 C82.411988,5.59941315 87.7819678,8.15015356 92.8,11.3 L92.3,12.6 C92.0022113,12.6515133 91.6977887,12.6515133 91.4,12.6 C90.7576499,12.3076138 90.153218,11.9382388 89.6,11.5 C89.0295416,11.0081777 88.3892286,10.6037695 87.7,10.3 C87.3,10.1 87,10 86.6,9.8 L86,9.5 L85.9,9.4 L86,9.5 C86,9.6 86.1,9.6 86.1,9.7 C87.1744512,10.8265505 88.4238892,11.7720711 89.8,12.5 C90.4,12.9 91.1,13.1 91.7,13.5 C92.3,13.9 92.9,14.4 93.5,14.8 C94.1,15.2 94.6,15.3 94.7,15.9 C94.8,16.5 94.6,16.9 94,16.6 C93.7,16.5 93.6,16.3 93.3,16.2 C93,16.1 92.8,16.1 92.6,15.8 C92.290158,15.227513 91.6307356,14.9390157 91,15.1 C91,15.6 91,15.8 90.4,15.8 C89.6,15.8 89.1,14.9 88.4,14.6 C87.9409359,14.4612622 87.5034079,14.2593262 87.1,14 C86.8666004,13.7159706 86.7268688,13.3666417 86.7,13 C86.4960879,12.228481 85.9401251,11.5983899 85.2,11.3 C84.5,10.9 84.2,10.1 83.7,9.5 C83.4071973,9.11961982 83.0308286,8.81168184 82.6,8.6 C82.2,8.4 81.6,8.6 81.2,8.4 C80.3,8 80,6.9 79.6,6.2 C79.1204361,5.78749509 78.5809369,5.45030808 78,5.2 C77.6,5.2 76.1,4.4 76.8,3.7" id="Shape" fill="#1864B3"></path>
                <path d="M78.4,13.1 C78.7,13.5 78.7,13.7 78.3,13.9 C77.9,14.1 77.6,14.5 77.3,14.6 C77,14.7 76.6,14.2 76.3,14.1 C76,14 74,14 75.1,13.3 C75.3,13.1 75.7,13.1 75.9,13 C76.1459869,12.7685053 76.4633323,12.6274629 76.8,12.6 C77.3721736,12.5974161 77.9311079,12.7720831 78.4,13.1" id="Shape" fill="#1864B3"></path>
                <path d="M52.9,5.6 C53.345007,5.80107555 53.854993,5.80107555 54.3,5.6 C54.883844,5.42936511 55.4929396,5.36168782 56.1,5.4 C58.8,5.3 62.8,3.1 64.8,5.8 C65.4,6.6 65.9,6.6 66.8,6.9 C67.3707052,7.04894351 67.8011515,7.51852123 67.9,8.1 C68.2,9 68.9,8.7 69.6,9.1 C70.1,9.4 70.9,10.2 70.8,10.8 C70.7459151,11.1061915 70.5061915,11.3459151 70.2,11.4 L69.6,11.7 C69.5,11.7 69.1,11.7 69.1,11.8 C68.9,11.9 68.9,12.4 68.7,12.6 C68.5499547,12.9294048 68.3065722,13.2075562 68,13.4 C67.7,13.6 67.1,13.7 66.9,14.1 C66.7,14.5 66.8,14.8 66.6,15.2 C66.1064267,15.7849371 65.9899521,16.6002598 66.3,17.3 C66.4,17.7 66.7,18.7 66.1,19 C65.7,19.2 65.6,18.7 65.4,18.5 C64.9,18 64.5,18.1 64,18 C63.7,17.9 63.5,17.6 63.1,17.6 C62.3,17.5 61.3,17.6 61.2,16.6 C61.2299277,16.3180804 61.1590748,16.034669 61,15.8 C60.9,15.6 60.6,15.2 60.8,14.9 C60.3,14.5 60.1,14.4 60,13.8 C60.0499869,13.4015617 60.0499869,12.9984383 60,12.6 C59.8,11.9 59.4,11.9 58.8,11.9 L58.5,11.9 C58.3,11.5 58.6,10.9 58.3,10.7 C58.1407604,10.5456589 57.9199964,10.4720709 57.7,10.5 C57.5,10.5 57.2,10.6 57.1,10.1 C57,9.6 57,9.5 56.5,9.2 C56.2194155,9.01925807 55.9807419,8.78058446 55.8,8.5 C55.4399838,7.80804418 54.6634693,7.44022152 53.9,7.6 C53.5,7.7 52.9,8.2 52.5,7.9 C51.9,7.5 52.2,7 52.5,6.7 C52.8,6.4 53.3,6.1 53,5.8 L52.9,5.7 L52.9,5.6" id="Shape" fill="#1864B3"></path>
                <path d="M52.1,5.9 C51.6029216,6.31619958 51.0236469,6.62287441 50.4,6.8 C49.8529269,6.80256519 49.3108427,6.904206 48.8,7.1 C48.5,7.3 48.3,7.7 47.9,7.9 C47.7784286,7.96955507 47.6400007,8.00416205 47.5,8 C47,8 47.1,7.5 46.7,7.3 C46.4170105,7.20873381 46.1067479,7.28629947 45.9,7.5 C45.4,7.8 45.1,8.3 44.3,8.1 C44.1,7.2 44.5,6.8 45.2,6.2 C45.6,5.9 45.9,5.5 46.3,5.5 C46.8388262,5.4890029 47.3750461,5.42197541 47.9,5.3 C48.1875161,5.18609447 48.4913019,5.11858654 48.8,5.1 C49.6659441,5.04995091 50.5340559,5.04995091 51.4,5.1 C51.8941663,5.17631978 52.3692887,5.34600635 52.8,5.6 C52.9,5.6 52.9,5.6 53,5.7 L52.9,5.9 C52.6555945,5.74590517 52.3444055,5.74590517 52.1,5.9" id="Shape" fill="#1864B3"></path>
                <path d="M42.6,11.5 C43.1274305,10.9188364 43.7332532,10.4139841 44.4,10 C44,10.1 42.8,10.2 42.6,9.6 C43.2,9 43.6,9.2 44.5,9.3 C45.0155773,9.30707307 45.5268029,9.20482797 46,9 C46.5,9 47.1,8.8 47.6,8.8 L47.7,8.8 C48.3,8.9 48.3,9.2 48.4,9.6 C48.6,10.2 49,10.2 49.4,10.5 C49.6,10.6 49.7,10.9 49.9,11.1 C50.1,11.3 50.1,11.2 50.3,11.3 C50.5699191,11.4389095 50.7561405,11.6996194 50.8,12 C50.9199688,12.4038127 51.2130375,12.733515 51.6,12.9 C52.2,13.3 53.7,13.6 53.3,14.5 C52.6986039,14.5666348 52.0903142,14.5328409 51.5,14.4 C51.3,14.4 51,14.1 50.8,14.4 C50.6,14.7 50.8,15 50.9,15.3 C51.1,15.8 51.5,16.3 51.1,16.7 C50.824,16.9626794 50.4757435,17.1368077 50.1,17.2 C49.8,17.1 49.8,17 49.6,16.7 C49.1,16.1 47.9,15.9 47.7,15.2 C47.5,14.5 47.9,14.3 48.2,14 C48.5,13.7 49.1,12.8 48.4,12.7 C48.1,12.7 47.7,13.1 47.5,13.2 C47.215418,13.4174726 46.8463344,13.4912893 46.5,13.4 C46.4,12.8 47.3,12.3 47.2,11.8 C46.4,11.7 46.8,11.2 46.5,10.8 C46.2,10.2 46,10.7 45.7,11 C45.4,11.3 44.9,11.4 44.8,11.7 C44.8149638,11.8409598 44.7795374,11.9826655 44.7,12.1 C44.5474506,12.2218399 44.3792938,12.322734 44.2,12.4 C43.8,12.7 42.9,13.1 42.5,12.8 C42.4,12.7 42.3,12.6 42.3,12.5 C42.2272146,12.1375061 42.3396963,11.7625671 42.6,11.5" id="Shape" fill="#1864B3"></path>
                <path d="M41.7,14.9 C42.4,15.1 41.8,15.5 41.4,15.5 C41,15.5 40.3,15.5 40.2,14.9 L41.7,14.9" id="Shape" fill="#1864B3"></path>
                <path d="M54,144 C49.4345722,144.02317 44.8783641,143.58765 40.4,142.7 C40.2555616,142.416688 40.1544365,142.113313 40.1,141.8 C40.2,141.6 40.8,141.6 41,141.7 L41.9,142 C42.2265394,142.082685 42.5635534,142.116387 42.9,142.1 C43.2,142.1 43.4,142 43.6,142.2 C43.8133114,142.341434 44.0504706,142.443074 44.3,142.5 C45.2,142.6 46.2,142.5 47.1,142.6 C47.7197904,142.791071 48.3557812,142.924964 49,143 L50.1,143 C50.6321609,142.949988 51.1678391,142.949988 51.7,143 C52.1987504,143.049992 52.7012496,143.049992 53.2,143 C53.5135997,142.969842 53.8286884,143.039862 54.1,143.2 C54.3,143.3 54.3,143.5 54.5,143.6 L55,144.1 C54.6734606,144.017315 54.3364466,143.983613 54,144" id="Shape" fill="#1864B3"></path>
                <path d="M40.7,67.8 C40.2,68 39.2,68.1 39.7,67.1 C40,66.5 41.2,66.4 41.8,66.3 C42.3,65.9 43.6,66.5 43.2,67.2 C43,67.6 42.5,67.4 42.1,67.4 C41.6182227,67.4732585 41.1477588,67.6076767 40.7,67.8" id="Shape" fill="#1864B3"></path>
                <path d="M32.8,63.7 C33.4,63.1 33.3,63.3 33.5,63.3 C34.1,63.2 34.6,63.8 35,64.2 C35.3,64.4 36.5,64.8 36.3,65.3 C36,66 34.9,65.2 34.6,64.9 C34.3,64.6 34.2,64.4 33.8,64.3 C33.3,64 33,64.3 32.8,63.7" id="Shape" fill="#1864B3"></path>
                <path d="M32,5.3 C31.8,5.1 31.2,5.3 31,5.3 L30.9,5.4 L30.3,4 C37.9175012,1.33813987 45.930823,-0.0143195078 54,0 C60.9030249,-0.00433213529 67.7716564,0.972090976 74.4,2.9 C72.8409731,3.09634439 71.2713382,3.19653385 69.7,3.2 C69.075839,3.06716387 68.4346567,3.03341744 67.8,3.1 C67.5547872,3.21137631 67.3204476,3.34528462 67.1,3.5 C66.6724532,3.60015015 66.2275468,3.60015015 65.8,3.5 C65.5075164,3.41752397 65.2034543,3.3837393 64.9,3.4 C64.3,3.4 63.7,3.6 63.1,3.6 C61.8590025,3.5464153 60.6161544,3.64718677 59.4,3.9 C59.1,4 58.9,4.2 58.7,4.2 C58.5,4.2 58.1,4.2 57.9,4.2 C57.26506,4.185966 56.6299588,4.21939238 56,4.3 C55.3,4.4 54.6,4.7 53.8,4.8 C52.9966327,4.78305023 52.1950918,4.71625516 51.4,4.6 L50.7,4.6 C48.7618225,4.55023433 46.8227,4.65053378 44.9,4.9 C43.8,5.1 42.5,5.7 41.5,4.9 C41.1416944,4.58778374 40.6355819,4.50992027 40.2,4.7 C39.9,4.8 39.7,5 39.4,5 C39.1,5 38.6,5 38.2,5.3 C37.8094014,5.56949773 37.4415074,5.87050188 37.1,6.2 C36.9,6.4 35,7.3 35.1,6.4 C34.6738613,6.23489109 34.1958734,6.27165939 33.8,6.5 C33.2,6.6 32.6,6.8 32.3,6.3 C32.1,6 32.2,5.5 32,5.3" id="Shape" fill="#1864B3"></path>
                <path d="M29.2,60.9 L28.4,60.9 C27.8286303,61.0534916 27.2201466,60.9819053 26.7,60.7 C27.3,60.1 29.3,59.7 29.9,60.4 C30.1,60.4 30.2,60.8 30.4,60.9 C30.6,61 30.8,61 30.9,61.1 C31.1336566,61.1825523 31.3174477,61.3663434 31.4,61.6 C31.6,61.9 31.8,62.6 31.1,62.4 C30.6,61.8 30.2,61.8 29.4,61.6 C29.2876276,61.3822166 29.2196449,61.144277 29.2,60.9" id="Shape" fill="#1864B3"></path>
                <path d="M34.4,32 C33.8,31.6 33.3,32 33,32.4 C32.7,32.8 33,33.4 33.3,33.9 C33.5,34.2 33.5,34.2 33.4,34.6 C33.4,34.8 33.2,35 33.4,35.2 C33.8,35.6 34.2,34.9 34.4,34.7 C34.6,34.5 35.1,34.5 35.5,34.5 L36.1,34.5 C36.5,34.4 37,34.2 36.6,33.7 C36.2,33.2 35.5,33.2 35.1,32.9 C34.7,32.6 34.7,32.3 34.4,32 M34.8,36.3 C34.5,36.3 33.1,36.8 33,37.1 C32.8,37.9 35.3,37.6 35.8,37.4 C36.1,37.3 36,37.2 36.2,36.9 C36.3606273,36.6497779 36.6112081,36.4707916 36.9,36.4 C37.2256103,36.3121423 37.5634399,36.2783593 37.9,36.3 C38.2366384,36.3274715 38.5754676,36.2935886 38.9,36.2 C39.0869243,36.0951148 39.2239422,35.919607 39.2803387,35.7128196 C39.3367353,35.5060323 39.3077931,35.2852626 39.2,35.1 C38.8,34.6 38,34.9 37.5,35.1 C36.7022504,35.6989026 35.7791208,36.1091825 34.8,36.3 M31,34.1 C31.3,33.7 31.4,32.4 30.5,32.9 C29.8,33.3 29.6,34.2 29.1,34.8 C28.77623,35.1816081 28.4756882,35.5823305 28.2,36 C28,36.4 27.7,36.8 28.3,37.1 C28.9,37.4 29.2,36.7 29.4,36.3 C30,35.6 30.5,34.8 31,34.1 M24.3,15.6 C24.8,15.8 25.1,15.2 25.4,14.9 C25.7,14.6 25.8,14.5 25.4,14.1 C25,14.4 24.6,14.2 24.3,14.6 C24,15 23.9,15.5 24.3,15.6 M23.9,16.9 C23.5,17.1 23.1,17.5 23.8,17.7 C24.1,17.8 24.3,17.2 23.9,16.9 M25.2,26.1 C25.5,26.2 25.4,26.6 25.5,26.8 C25.6123724,27.0177834 25.6803551,27.255723 25.7,27.5 C25.7,27.9 25.2,28 25.7,28.3 C26,28.5 26.7,28.5 26.8,28 C26.8,27.7 26.5,27.5 26.5,27.3 C26.4,26.9 26.6,26.7 26.8,26.4 C26.1029953,25.9250778 25.3227015,25.5858196 24.5,25.4 C24.2,25.5 24.2,25.8 24.3,26.1 C24.4,26.4 24.6,26.4 24.8,26.3 C25,26.2 25.1,26.1 25.2,26.1 M25.7,23.8 C25.5,24.2 25,25.1 25.9,24.9 C26.2,24.8 26.3,24.6 26.5,24.4 C26.7,24.2 27.3,24.1 27.5,23.7 C28.1,22.6 27.2,22.5 26.9,22.3 C26,22.2 26,23.3 25.7,23.8 M28.8,6.3 C28.4799509,6.42770077 28.1775077,6.59572476 27.9,6.8 C27.5,7.1 27.5,7.4 27.3,7.7 C27.3,8.3 27.8,8.7 28.9,8.4 C29.3817425,8.18014959 29.9506419,8.30205663 30.3,8.7 C30.5639781,8.9245509 30.8698834,9.09449828 31.2,9.2 C31.6051972,9.45946035 31.8355501,9.92016602 31.8,10.4 C31.6,10.5 31.4,10.5 31.2,10.6 C31.1,11.2 32.5,11.4 32.9,11.4 C32.9,11.2 32.8,10.9 32.8,10.7 C32.7,10.3 32.4,10.3 32.2,10.1 C31.8,9.5 32.5,9 32.9,8.7 C33.3,8.4 33.6,7.8 34.2,7.6 C34.8,7.4 35.2,7.9 35.8,7.9 C36.0051477,7.9157617 36.2110533,7.8814441 36.4,7.8 C36.621826,7.71059713 36.8620142,7.67628453 37.1,7.7 C37.4,7.8 38.1,7.9 38,8.4 C37.9,8.9 37.1,8.6 36.9,9 C36.7,9.4 37,9.8 36.8,10.2 L36.4,10.6 C36.0743897,10.6878577 35.7365601,10.7216407 35.4,10.7 C35.0217762,10.6607407 34.6401982,10.7301185 34.3,10.9 C34.8562961,11.7691473 35.9825279,12.0723635 36.9,11.6 C37.354507,11.3394462 37.8931036,11.2676333 38.4,11.4 C38.7,11.5 38.6,11.7 38.9,11.5 C39.2,11.3 39.1,10.8 39.1,10.5 C39.3,9.6 40.6,8.5 40.6,9.9 C40.6351493,10.7132991 40.7694767,11.5192633 41,12.3 C41,12.4 41.1,12.6 41.1,12.7 C41.2791883,13.3074589 41.0344299,13.960148 40.5,14.3 C40,14.6 39.7,14.4 39.2,14.6 C39,14.7 38.9,14.9 38.6,14.9 L38.2,14.9 C37.8133977,15.0610609 37.4447213,15.2621572 37.1,15.5 C36.5340411,15.7711397 35.9247188,15.9403959 35.3,16 C34.6,16.1 33.5,16.2 33.1,16.8 C32.8,17.1 32.8,17.8 32.6,18.2 C32.4,18.6 32.1,18.8 32.1,19.2 C32,20.1 32.9,20.6 33.6,21 C33.9866023,21.1610609 34.3552787,21.3621572 34.7,21.6 C35,21.8 35.3,22.1 35.6,22.3 C36.2,22.8 37.2,22.9 37.7,23.5 C38.3,24.3 37.7,25.3 37.8,26.2 C37.9,27.1 38.8,27.5 39.7,27.6 C40.4,27.6 40.2,27.3 40.2,26.7 C40.2,26.1 40,25.3 40.5,24.8 C41.3,24.1 42.9,24.1 43.4,23.1 C43.9,22.1 42.8,20.9 43.1,19.9 C43.2,19.5 43.4,19.4 43.4,18.9 C43.3774682,18.3709325 43.5170239,17.8475987 43.8,17.4 C44.4,16.6 46.1,16.8 46.7,17.4 C46.9,17.6 46.9,17.8 47.1,17.9 C47.3,18 47.3,18 47.5,18.1 C47.8479759,18.3478467 48.1521533,18.6520241 48.4,19 C49,19.9 48.9,21.8 49,22.8 C49.6680515,22.2652604 50.2425506,21.6231731 50.7,20.9 C51,20.5 51,20.2 51.6,20.2 C51.9924009,20.1431781 52.3907796,20.2518268 52.7,20.5 C53.2238953,20.9164037 53.550137,21.532638 53.6,22.2 C53.6810136,22.9944232 54.0343214,23.7363697 54.6,24.3 C54.8759094,24.5339698 55.1779089,24.7353028 55.5,24.9 L56.1,25.2 C56.5394739,25.2175852 56.9755629,25.2846758 57.4,25.4 C58,25.9 57.9,27.1 57.8,27.7 L57.8,28.5 L57.7,28.5 C57.6803551,28.255723 57.6123724,28.0177834 57.5,27.8 C57.2,27.2 56.6,27.4 56.1,27.7 C55.2995274,28.1134547 54.3967273,28.2870701 53.5,28.2 L52.3,28.2 C51.4945215,28.1170568 50.68064,28.1848802 49.9,28.4 C49.2187646,28.6642204 48.6523117,29.1598668 48.3,29.8 C48.227107,30.1827971 48.3832174,30.5730731 48.7,30.8 C49,30.9 49.7,30.2 50.2,30.1 C50.7,30 50.7,30.1 50.8,30.6 C51,31.6 50.6,32.7 50.8,33.7 C50.9,34.1 51.2,34.1 51.5,34 C51.6028007,33.931171 51.731665,33.9137835 51.8490314,33.9529057 C51.9663979,33.9920278 52.0590568,34.0832564 52.1,34.2 C52.4,34.8 50.6,35.8 50.2,35.6 C49.5,35.3 49.9,34.2 49,34.2 C47.8291468,34.2246355 46.6875806,34.5705647 45.7,35.2 C44.9,35.5 43.7,35.9 43.7,36.8 C43.6,37.5 43.6,38.3 42.8,38.5 C42.2,38.7 41.7,38.4 41.2,38.9 C41,39.1 40.9,39.3 40.7,39.5 C40.1668349,40.3159969 39.4890341,41.0276878 38.7,41.6 C37.8332008,41.9607658 37.3340328,42.8759071 37.5,43.8 C37.6,44.4 38.1,45 37.6,45.5 C37.1,46 36.1,46.1 35.5,46.4 C34.9,46.7 34.3,47.3 33.6,47.7 C32.1,48.5 30.7,48.7 30.8,50.6 C30.7685909,52.0494849 30.9368364,53.4963956 31.3,54.9 C31.5,55.6 32,56.8 30.9,57.1 C30.4,57.2 29.6,56.5 29.2,56.1 C28.3,55.1 28.8,54.4 28.8,53.2 C28.8,52.2 28.1,51.9 27.4,51.4 C26.6,50.7 26,51 25,50.6 C24.5523947,50.3581641 24.0838159,50.1573446 23.6,50 C22.934274,49.9499169 22.265726,49.9499169 21.6,50 C21.1244735,49.9678031 20.6474903,50.0359436 20.2,50.2 C19.9,50.3 19.7,50.6 19.3,50.7 C18.8387043,50.8001292 18.3612957,50.8001292 17.9,50.7 C17.2610767,50.5716411 16.5981927,50.6414183 16,50.9 C15.2254982,51.3743882 14.5743882,52.0254982 14.1,52.8 C13.7269652,53.4460659 13.3930319,54.1139327 13.1,54.8 C11.9926736,56.6311618 11.5019655,58.7692472 11.7,60.9 C11.6888819,62.3857769 12.1824815,63.8313185 13.1,65 C14.1,66.1 16.8,66.8 18,65.7 C18.4,65.3 19.2,63 19.7,62.6 C20.2,62.2 22.1,61.7 22.7,62.2 C23.5,62.9 21.7,64.8 21.3,65.3 C20.6413292,66.4174472 20.3281737,67.7048643 20.4,69 C20.5,69.9 21.6,69.9 22.7,69.9 L23.9,69.9 C24.6328733,70.0566257 25.2568267,70.5337666 25.6,71.2 C25.8668081,72.3559932 25.8323757,73.5611264 25.5,74.7 C25.2,75.7 25,76.1 25.8,77 C26.0314947,77.2459869 26.1725371,77.5633323 26.2,77.9 C26.1582302,78.1826233 26.2301451,78.4702829 26.4,78.7 C26.6,79 27.1,79.1 27.4,79.2 L28,79.5 L28,80.2 L27.2,80.2 C26.7380925,80.1690932 26.3236294,79.9053439 26.1,79.5 C25.6256118,78.7254982 24.9745018,78.0743882 24.2,77.6 C23.8,77.4 23.5,77.3 23.4,76.9 C23.1932303,76.1139849 23.0593309,75.3105883 23,74.5 C21.9,74.3 21.6,73.7 20.9,72.8 C20.2,71.9 19.7,71.9 18.6,71.6 C17.6277448,71.4445542 16.7040776,71.0682453 15.9,70.5 C15.544279,70.084234 15.3648828,69.5460454 15.4,69 C15.4,67.4 14.5,67.7 13.2,67.7 C12.3753645,67.6885444 11.5606048,67.5188028 10.8,67.2 C10.2,67 10.1,66.5 9.7,66 C9.3,65.5 8.8,65.4 8.4,65 C8,64.6 8,64 7.6,63.5 C7.1,62.8 6,63.4 5.4,62.6 C4.6,61.4 4.7,60.1 4.8,58.6 C4.8,57.5 4.6,56.5 4.6,55.5 C4.49481242,54.6792382 4.29342826,53.8737016 4,53.1 C3.84237554,52.6820139 3.74147753,52.2447892 3.7,51.8 C3.6,51.2 4,50.6 3.9,50.1 C3.7,49.4 3.3,48.8 3.1,48.2 C2.91757907,47.6520201 2.88308307,47.065588 3,46.5 C3.1,45.7 2.7,45.3 2.2,44.6 C1.7,44.5 1.6,45.2 1.6,45.5 C1.56694984,46.9362361 1.63377758,48.3730324 1.8,49.8 C1.85745582,50.5385088 1.95762344,51.2730713 2.1,52 C2.11656461,52.6017339 2.08311628,53.2038039 2,53.8 C2,54.1 2.1,54.4 2.1,54.7 C2.1,55.2 1.6,55.7 1.4,55.1 C1.3,54.7 1.3,54.1 1.2,53.7 C1.08473835,53.3096316 1.01757466,52.9066495 1,52.5 C1,51.7 1.1,51.5 1.1,50.7 C1.1,50.1 0.5,49.5 0.7,48.9 C0.815324203,48.4755629 0.882414815,48.0394739 0.9,47.6 L0.9,46.7 C0.894872045,45.8903382 0.995728454,45.0834869 1.2,44.3 C1.38851641,43.6184831 1.62237087,42.9503275 1.9,42.3 C2.08562778,41.8920268 2.12104802,41.4315636 2,41 L1.4,40.1 C0.9,39.1 1.5,38.7 1.9,37.8 C2.3,36.9 2,35.9 2.4,34.9 C2.79358034,34.2913856 3.06527236,33.6121555 3.2,32.9 C3.45454303,32.0451936 3.89894167,31.2589499 4.5,30.6 C5.0836943,30.0829351 5.61922682,29.5139318 6.1,28.9 C6.93758914,27.8123421 7.91234215,26.8375891 9,26 C9.39540624,25.5918262 9.76290277,25.1575122 10.1,24.7 C10.271228,24.2893326 10.3398723,23.8431444 10.3,23.4 C10.2933907,22.8520913 10.395352,22.3082979 10.6,21.8 C10.8,21.3 11.2,21.1 11.7,20.8 C12.2,20.5 12.2,20.1 12.5,19.6 C12.8,19.1 13.3,19.2 13.6,18.9 C13.9,18.6 13.8,18.5 13.9,18.1 C14,17.7 14.1,17.4 14.5,17.1 C15.2,16.5 15.5,15.8 16.1,15.2 C16.4,14.9 16.9,14.7 17,14.4 L17,14.1 C17.1,13.9 17.2,13.8 17.3,13.6 C17.6,13.2 18.6,12.3 18,11.8 C17.7,11.6 17.3,11.8 16.9,11.9 C16.5,12 14.5,12.1 14,12.3 C19.009047,8.76905638 24.4981494,5.97399193 30.3,4 L30.8,5.5 C30.4770071,5.68659173 30.1430691,5.85356069 29.8,6 C29.5,6.1 29.2,6.2 28.8,6.3 M28.7,30.1 C28.4,30.3 27.3,30.6 27.9,30.9 C28.2,31.1 28.6,31 29.1,31 C29.4,31 29.6,30.9 29.8,31 C30.311355,31.1305329 30.7887607,31.3692358 31.2,31.7 C31.6,31.9 32.8,32 33,31.2 C32.8658327,30.184622 32.1687037,29.3325755 31.2,29 C30.6,28.8 30.4,29 30.1,29.4 C29.8,29.8 29.2,29.8 28.7,30.1 M28.6,11.4 C28.8,11.2 28.6,10.6 28.2,10.5 C27.9,10.6 27.6,10.8 27.3,10.9 C27.0622368,10.8839016 26.8237451,10.9179718 26.6,11 C26.2,11.1 25,11.6 25.9,12 C26.4,12.3 27.2,11.6 27.7,11.6 L27.9,11.6 C28.3,11.6 28.5,11.6 28.6,11.4 M22.9,20.5 C23.2,20.2 24,18.9 22.9,19.5 C22.8,19.9 22.3,20.2 22.2,20.7 C22.1,21.5 22.7,20.8 22.9,20.5" id="Shape" fill="#1864B3"></path>
            </g>
            <circle id="Globe_light" fill="url(#radialGradient-2)" cx="72" cy="72" r="72"></circle>
            <path d="M130.5,51 C130.5,78 105.7,66.5 73.4,66.5 C41.1,66.5 13.5,78 13.5,51 C13.5,24 39.7,2.2 72,2.2 C104.3,2.2 130.5,24 130.5,51 Z" id="shine" fill="url(#linearGradient-3)" opacity="0.9"></path>
            <g id="Type" transform="translate(13.000000, 37.000000)">
                <path d="M113.6,55 C114.096017,54.9914747 114.583357,55.1307145 115,55.4 C115.425835,55.6258306 115.774169,55.9741646 116,56.4 C116.237175,56.8305424 116.373919,57.309145 116.4,57.8 C116.408525,58.2960175 116.269285,58.783357 116,59.2 C115.774169,59.6258354 115.425835,59.9741694 115,60.2 C114.569458,60.4371752 114.090855,60.5739188 113.6,60.6 C113.103983,60.6085253 112.616643,60.4692855 112.2,60.2 C111.774165,59.9741694 111.425831,59.6258354 111.2,59.2 C110.962825,58.7694576 110.826081,58.290855 110.8,57.8 C110.791475,57.3039825 110.930715,56.816643 111.2,56.4 C111.425831,55.9741646 111.774165,55.6258306 112.2,55.4 C112.635665,55.1755029 113.111494,55.0395518 113.6,55 Z M113.6,55.5 C113.211992,55.4911518 112.829792,55.5953883 112.5,55.8 C112.135871,55.9843573 111.825777,56.2599964 111.6,56.6 C111.407095,56.9708692 111.304316,57.3819835 111.3,57.8 C111.291152,58.1880081 111.395388,58.5702083 111.6,58.9 C111.820132,59.2704531 112.129547,59.5798684 112.5,59.8 C112.835342,59.9915465 113.213843,60.0947742 113.6,60.1 C113.988008,60.1088482 114.370208,60.0046117 114.7,59.8 C115.086962,59.633515 115.380031,59.3038127 115.5,58.9 C115.691547,58.5646581 115.794774,58.1861566 115.8,57.8 C115.795684,57.3819835 115.692905,56.9708692 115.5,56.6 C115.333515,56.2130375 115.003813,55.9199688 114.6,55.8 C114.313757,55.5826688 113.958606,55.4761234 113.6,55.5 Z M112.4,59.3 L112.4,56.3 L113.4,56.3 C113.67069,56.2786821 113.942886,56.3127066 114.2,56.4 C114.350488,56.4748097 114.486046,56.5764781 114.6,56.7 C114.679537,56.8173345 114.714964,56.9590402 114.7,57.1 C114.679287,57.312492 114.610924,57.5175783 114.5,57.7 C114.3,57.9 114.1,57.9 113.9,58 C114,58 114.1,58.1 114.2,58.2 C114.37894,58.3655246 114.516031,58.5711617 114.6,58.8 L115,59.4 L114.4,59.4 L114.1,58.9 C113.975206,58.6394261 113.806015,58.4025587 113.6,58.2 C113.5,58.1 113.4,58.1 113.2,58.1 L112.9,58.1 L112.9,59.4 L112.4,59.4 L112.4,59.3 Z M112.9,57.7 L113.5,57.7 C113.8,57.7 114,57.7 114.1,57.6 C114.2,57.5 114.3,57.4 114.3,57.3 C114.3,57.2 114.3,57.1 114.2,57.1 C114.1,57.1 114.1,57 114,56.9 C113.838283,56.8454703 113.670251,56.8118639 113.5,56.8 L113,56.8 L113,57.7 L112.9,57.7 Z" id="registered-trademark" fill="#FFFFFF"></path>
                <path d="M107.8,64.1 C105.5,71.3 101.8,76.9 93.4,76.9 C91.8332751,76.8862439 90.279378,76.6160009 88.8,76.1 L89.7,71.1 C90.8009171,71.4531102 91.944718,71.6549574 93.1,71.7 C99.1,71.7 101.1,66.7 102.6,61.7 L88.2,20.5 L94.2,20.5 L105.6,53.2 L116,20.5 L121.6,20.5 L107.8,64.1 Z" id="y" fill="#000000" opacity="0.5" filter="url(#filter-4)"></path>
                <path d="M83.6,62.5 L44.6,62.5 L44.6,49.9 C57.1,34.5 71.6,29.4 71.6,19.1 C71.6,15 69,11.7 64.8,11.7 C58.6,11.7 56.7,16.6 55.8,21.8 L44.6,19.8 C45,8.5 53.5,2.3 64.4,2.3 C77.8,2.3 83.8,10.3 83.8,19.5 C83.8,34.9 68.3,38 56.7,52.2 L83.7,52.2 L83.7,62.5 L83.6,62.5 Z" id="_2" fill="#000000" opacity="0.5" filter="url(#filter-5)"></path>
                <path d="M12.6,24.3 C16.2,21.3 20.6,19 25.3,19 C30,19 36.5,21.8 36.5,32.3 L36.5,62.5 L25.2,62.5 L25.2,36.9 C25.2,33.5 25.4,28.1 20.6,28.1 C17.3,28.1 14.7,30.5 12.6,32.7 L12.6,62.5 L1.4,62.5 L1.4,19.9 L12.6,19.9 L12.6,24.3 Z" id="n" fill="#000000" opacity="0.5" filter="url(#filter-6)"></path>
                <path d="M106.8,62.1 C104.5,69.3 100.8,74.9 92.4,74.9 C90.8332751,74.8862439 89.279378,74.6160009 87.8,74.1 L88.7,69.1 C89.8009171,69.4531102 90.944718,69.6549574 92.1,69.7 C98.1,69.7 100.1,64.7 101.6,59.7 L87.2,18.5 L93.2,18.5 L104.6,51.2 L115,18.5 L120.6,18.5 L106.8,62.1 Z" id="y" fill="#FFFFFF"></path>
                <path d="M82.6,60.5 L43.6,60.5 L43.6,47.9 C56.1,32.5 70.6,27.4 70.6,17.1 C70.6,13 68,9.7 63.8,9.7 C57.6,9.7 55.7,14.6 54.8,19.8 L43.6,17.8 C44,6.5 52.5,0.3 63.4,0.3 C76.8,0.3 82.8,8.3 82.8,17.5 C82.8,32.9 67.3,36 55.7,50.2 L82.7,50.2 L82.7,60.5 L82.6,60.5 Z" id="_2" fill="#E67727"></path>
                <path d="M11.6,22.3 C15.2,19.3 19.6,17 24.3,17 C29,17 35.5,19.8 35.5,30.3 L35.5,60.5 L24.2,60.5 L24.2,34.9 C24.2,31.5 24.4,26.1 19.6,26.1 C16.3,26.1 13.7,28.5 11.6,30.7 L11.6,60.5 L0.4,60.5 L0.4,17.9 L11.6,17.9 L11.6,22.3 Z" id="n" fill="#FFFFFF"></path>
            </g>
        </g>
    </g>
</svg>